<?xml version="1.0" standalone="no"?>
<!DOCTYPE svg PUBLIC "-//W3C//DTD SVG 1.1//EN" "http://www.w3.org/Graphics/SVG/1.1/DTD/svg11.dtd" >
<svg>
<metadata>
Created by FontForge 20090622 at Thu Sep 24 08:36:53 2015
 By deploy user
Copyright (c) 2009 by Stjepan Fileki. All rights reserved.
</metadata>
<defs>
<font id="NeoplantaBG-Bold" horiz-adv-x="740" >
  <font-face 
    font-family="Neoplanta BG"
    font-weight="700"
    font-stretch="normal"
    units-per-em="1000"
    panose-1="2 0 6 3 9 0 0 2 0 4"
    ascent="762"
    descent="-238"
    x-height="500"
    cap-height="750"
    bbox="-85 -250 1117 1009"
    underline-thickness="22"
    underline-position="-53"
    unicode-range="U+0020-U+2212"
  />
<missing-glyph horiz-adv-x="240" 
 />
    <glyph glyph-name=".notdef" horiz-adv-x="240" 
 />
    <glyph glyph-name=".null" horiz-adv-x="0" 
 />
    <glyph glyph-name="nonmarkingreturn" horiz-adv-x="333" 
 />
    <glyph glyph-name="space" unicode=" " horiz-adv-x="240" 
 />
    <glyph glyph-name="exclam" unicode="!" horiz-adv-x="306" 
d="M231 602q0 -18 -2 -32.5t-8 -45.5t-11 -71q-5 -36 -16.5 -106.5l-19.5 -123t-8 -73.5h-25q0 21 -7.5 72t-19.5 121t-17 109q-6 42 -12 73.5t-8 44.5t-2 32q0 56 24 87.5t54 31.5q31 0 54.5 -31.5t23.5 -87.5zM220 61q0 -26 -17.5 -45.5t-44.5 -19.5q-26 0 -45.5 18
t-19.5 46q0 26 18 45t45 19q26 0 45 -18t19 -45z" />
    <glyph glyph-name="quotedbl" unicode="&#x22;" horiz-adv-x="294" 
d="M123 712q0 -28 -13 -96q-17 -91 -18 -99h-26q-2 22 -17 98q-14 73 -14 97q0 25 12.5 38t31.5 13t31.5 -13t12.5 -38zM259 712q0 -28 -13 -96q-17 -91 -18 -99h-26q-2 22 -17 98q-14 73 -14 97q0 25 12.5 38t31.5 13t31.5 -13t12.5 -38z" />
    <glyph glyph-name="numbersign" unicode="#" horiz-adv-x="600" 
d="M541 418h-124l-25 -162h121v-26h-124l-34 -230h-26l33 230h-166q-6 -44 -18.5 -126t-15.5 -104h-27l34 230h-128v26h132l24 162h-124v26h129l32 216h26l-32 -216h166l16 107.5t16 108.5h25l-31 -216h121v-26zM391 418h-167l-25 -162h167z" />
    <glyph glyph-name="dollar" unicode="$" horiz-adv-x="554" 
d="M86 206q1 -78 42.5 -116.5t131.5 -39.5v253l-67 33q-26 13 -46.5 28t-33.5 26t-22 28.5l-13 25t-6 27t-2.5 23t-0.5 23.5q-1 71 57 126t134 57v63h22v-63q112 -3 175 -55v-118h-25q0 65 -42.5 105.5t-107.5 40.5v-235l79 -37q133 -63 130 -191q-2 -67 -57 -123t-152 -64
v-97h-22v97q-127 0 -198 46v137h24zM413 158q0 34 -25 65t-68 51l-38 18v-242q59 4 95 33t36 75zM136 584q-1 -26 9 -48t31 -38.5t39 -27t45 -22.5v225q-54 -1 -88 -25.5t-36 -63.5z" />
    <glyph glyph-name="percent" unicode="%" horiz-adv-x="711" 
d="M566 710l-403 -718l-33 16l403 718zM307 523q0 -72 -34 -131.5t-95 -59.5q-42 0 -72.5 31t-43.5 73t-13 87q0 73 33.5 132t95.5 59q42 0 72.5 -31t43.5 -73t13 -87zM237 529q0 164 -59 164t-59 -168v-31t1.5 -34.5t5 -39.5t10 -32t17 -26.5t25.5 -8.5q20 0 33 16.5t18 47
t6.5 54t1.5 58.5zM670 232q0 -72 -34 -131.5t-95 -59.5q-42 0 -72.5 31t-43.5 73t-13 87q0 73 33.5 132t95.5 59q42 0 72.5 -31t43.5 -73t13 -87zM600 238q0 164 -59 164q-36 0 -47.5 -50.5t-11.5 -128.5q0 -161 59 -161q20 0 33 16.5t18 47t6.5 54t1.5 58.5z" />
    <glyph glyph-name="ampersand" unicode="&#x26;" horiz-adv-x="799" 
d="M770 410l-3 -1q0 -69 -64 -125t-141 -61h-4q0 -98 -65 -164.5t-174 -66.5q-118 0 -190.5 46.5t-72.5 136.5t60.5 134t150.5 51v1q-165 24 -165 150q0 60 39.5 101.5t92.5 58t112 16.5q73 0 128 -38t55 -108q0 -43 -20.5 -68.5t-53.5 -25.5q-27 0 -47 20t-20 50
q-1 28 19 48t46 20q14 0 27 -5.5t14 -5.5q2 0 2 5q-7 38 -44 57.5t-88 19.5q-58 0 -85.5 -39.5t-27.5 -104.5t30.5 -103.5t93.5 -39.5l37 -1v-25l-85 -2q-61 -1 -92.5 -42t-31.5 -106q0 -176 136 -176q86 0 140 60t54 140v6q-29 -3 -57 -1t-53 3t-43.5 0t-29.5 -10.5
t-11 -27.5q0 -3 1 -3h1q4 0 13.5 6t15.5 6q24 0 38.5 -15t14.5 -39q0 -28 -18 -44t-40 -16q-25 0 -41 19.5t-16 43.5q0 86 61.5 137.5t148.5 51.5h82q144 0 144 61q0 2 -3 2q-1 0 -12 -7.5t-23 -7.5q-26 0 -40.5 14.5t-14.5 39.5t15.5 42t42.5 17q61 0 61 -85z" />
    <glyph glyph-name="quotesingle" unicode="'" horiz-adv-x="158" 
d="M123 712q0 -28 -13 -96q-17 -91 -18 -99h-26q-2 22 -17 98q-14 73 -14 97q0 25 12.5 38t31.5 13t31.5 -13t12.5 -38z" />
    <glyph glyph-name="parenleft" unicode="(" horiz-adv-x="318" 
d="M293 -157v-26q-55 1 -98.5 22t-71.5 57.5t-47.5 79.5t-29.5 97t-14 101.5t-4 99.5q0 227 68 343t197 116v-26q-109 0 -146 -111q-36 -111 -36 -322q0 -210 36 -320q37 -111 146 -111z" />
    <glyph glyph-name="parenright" unicode=")" horiz-adv-x="310" 
d="M25 -183v26q109 0 146 111q36 109 36 320t-36 322q-37 111 -146 111v26q129 0 197 -116t68 -343q0 -52 -4 -99.5t-14 -101.5t-29.5 -97t-47.5 -79.5t-71.5 -57.5t-98.5 -22z" />
    <glyph glyph-name="asterisk" unicode="*" horiz-adv-x="358" 
d="M262 618q-33 8 -51 -1q-10 -4 -5 -14q1 -2 3 -4t9 -6l16 -9l27 -15t37 -22q-25 -40 -87 -64q0 1 -3.5 34t-11.5 53t-22 20q-3 -1 -5 -2.5t-3.5 -5t-2.5 -8t-2.5 -13t-3.5 -18t-5 -26t-7 -33.5q-49 11 -88 63q17 10 35.5 19l27.5 13.5t16.5 10t10.5 10.5q17 17 -18 19
q-23 2 -34 -1q-26 -5 -58 -8q0 56 33 103q16 -14 31 -29.5l22 -23t15 -12.5t15 -5q3 0 5 1q8 3 8 18q0 4 -5.5 15l-16.5 32.5t-20 42.5q30 10 56 10q17 0 52 -10q-8 -20 -19.5 -40.5t-17 -32t-5.5 -17.5q0 -18 16 -18q6 0 20.5 12t34 32t24.5 24q34 -40 34 -102q-39 4 -57 8
z" />
    <glyph glyph-name="plus" unicode="+" horiz-adv-x="608" 
d="M548 344v-36h-225v-232h-38v232h-225v36h225v227h38v-227h225z" />
    <glyph glyph-name="comma" unicode="," horiz-adv-x="241" 
d="M120 121q30 -1 45.5 -24.5t15.5 -52.5q0 -46 -18.5 -88.5t-73.5 -99.5l-16 12q20 19 40.5 51.5t20.5 60.5q0 17 -1 20q-7 -2 -20 -2q-53 0 -53 62q0 27 17 44t43 17z" />
    <glyph glyph-name="hyphen" unicode="-" horiz-adv-x="385" 
d="M325 305h-265v42h265v-42z" />
    <glyph glyph-name="period" unicode="." horiz-adv-x="247" 
d="M187 61q0 -26 -17.5 -45.5t-44.5 -19.5q-26 0 -45.5 18t-19.5 46q0 26 18 45t45 19q26 0 45 -18t19 -45z" />
    <glyph glyph-name="slash" unicode="/" horiz-adv-x="348" 
d="M403 744l-371 -753l-35 10l371 750z" />
    <glyph glyph-name="zero" unicode="0" horiz-adv-x="637" 
d="M575 341q0 -66 -15 -127t-44.5 -112.5t-80.5 -82.5t-117 -31q-67 0 -118 31t-80 83t-43.5 112.5t-14.5 126.5t15 126.5t44.5 111.5t80.5 81.5t116 30.5q67 0 118.5 -30.5t80.5 -81.5t43.5 -111.5t14.5 -126.5zM427 336v47.5t-1.5 51.5t-4 56t-7.5 52t-13 49.5t-19.5 37
t-27.5 27.5t-36 9t-36 -8.5t-27 -27.5t-19.5 -37t-13 -49.5l-7.5 -51t-4 -55.5t-1 -50v-46v-36t0.5 -39.5t2 -44t4 -42.5t6.5 -43.5l9.5 -38t13.5 -35t18.5 -25.5t24 -18.5t29.5 -5.5q20 0 36 9t27 27t19.5 36.5t13 48t7.5 51t4 55l1.5 50.5t0.5 46z" />
    <glyph glyph-name="one" unicode="1" horiz-adv-x="405" 
d="M376 0h-337v18h32q69 0 69 95v476l-118 -181q-4 2 -11.5 7.5t-8.5 6.5l164 260h109v-569q0 -95 69 -95h32v-18z" />
    <glyph glyph-name="two" unicode="2" horiz-adv-x="549" 
d="M497 207q-6 -216 -120 -216q-71 0 -127 37q-110 71 -122 71q-28 0 -41 -23t-13 -76h-25q1 62 31 121.5t72.5 107l84.5 93.5t71.5 100.5t29.5 109.5t-21.5 94.5t-72.5 39.5q-55 0 -102.5 -42t-47.5 -81q0 -7 10 -7q3 0 13 3t14 3q29 0 46.5 -21.5t17.5 -53.5
q0 -28 -17.5 -48.5t-50.5 -20.5q-32 0 -53 23t-21 63q0 91 57.5 149t145.5 58q105 0 165 -46t60 -131q0 -47 -30.5 -89t-77.5 -75.5t-96.5 -65t-95 -71t-65.5 -79.5q66 52 114 52q29 0 99 -37q60 -31 82 -31q63 0 63 89h23z" />
    <glyph glyph-name="three" unicode="3" horiz-adv-x="524" 
d="M480 181q0 -62 -41 -107t-97.5 -64t-119.5 -19q-71 0 -131 38.5t-59 113.5q1 38 20 68.5t53 30.5q35 0 56 -18.5t21 -53.5q0 -31 -17.5 -53t-48.5 -22q-11 0 -21 4.5t-16 4.5h-2q-5 0 -5 -6q0 -29 49.5 -55.5t99.5 -26.5q42 0 68 27.5t34 62t8 77.5q0 83 -33.5 125.5
t-115.5 42.5h-24v25h25q79 0 110.5 36t31.5 110q0 145 -80 145q-40 0 -76 -17t-38 -37q-1 -7 16 -11.5t34.5 -19.5t17.5 -47q0 -27 -19.5 -46t-49.5 -19q-31 0 -51 17t-20 53q0 67 61 109.5t139 42.5q88 0 151 -41.5t63 -117.5q0 -34 -12.5 -61.5t-28.5 -43.5t-44.5 -29.5
t-47.5 -19.5t-50 -14q-6 -1 -8 -2q40 -9 59 -14t51 -18.5t47.5 -30.5t28 -47.5t12.5 -71.5z" />
    <glyph glyph-name="four" unicode="4" horiz-adv-x="554" 
d="M538 211l-1 -1q-37 -26 -114 -40v-67q0 -45 15.5 -64.5t47.5 -19.5h30v-19h-319v19h30q32 0 47.5 19.5t15.5 64.5v70q-24 6 -81 26.5t-84 20.5q-61 0 -61 -53l-19 -1q0 28 14 64q25 67 47 137t50 172l40 143h143q-6 -49 -45.5 -119.5t-96.5 -153.5t-76 -118l-31 -56
q17 9 40 9q28 0 84.5 -21t75.5 -25v242l58.5 38t74.5 51v-334q60 9 102 36v1q2 -3 6.5 -10.5t6.5 -10.5z" />
    <glyph glyph-name="five" unicode="5" horiz-adv-x="516" 
d="M470 225q0 -113 -75 -173.5t-187 -60.5q-70 0 -126 39.5t-56 108.5q0 36 19.5 57t47.5 23t49.5 -16t20.5 -50q-1 -26 -15.5 -45t-38.5 -19q-5 0 -12 2t-11 2q-11 0 -11 -8q0 -24 41 -46.5t92 -22.5q33 0 57 19.5t35.5 52t16.5 64t5 66.5q0 180 -112 180q-33 0 -71.5 -13
t-47.5 -38v-37h-25v370q10 11 29 11q31 0 55.5 -15.5t40 -38l30.5 -45t35.5 -38t45.5 -15.5q23 0 40 10.5t17 21.5q0 2 -18 2q-22 0 -37.5 17.5t-15.5 38.5q0 26 16.5 43.5t45.5 17.5q60 0 60 -68q0 -45 -32.5 -76t-75.5 -31q-40 0 -107.5 19.5t-81.5 19.5q-12 0 -22 -4
l1 -164q67 47 136 47q46 0 86 -10t76.5 -32t58 -64.5t21.5 -101.5z" />
    <glyph glyph-name="six" unicode="6" horiz-adv-x="585" 
d="M528 220q0 -101 -65 -165t-160 -64q-61 0 -104.5 14.5t-77.5 49.5t-51 98.5t-17 157.5q0 163 78.5 271.5t206.5 108.5q74 0 124 -33.5t50 -89.5q0 -38 -21 -62.5t-52 -24.5q-34 0 -53.5 19t-19.5 52q0 29 18.5 49t47.5 20q4 0 13.5 -2t12.5 -2t3 2q0 7 -13 17.5t-40.5 20
t-60.5 9.5q-37 0 -64 -19t-42 -47.5t-24 -70.5t-11.5 -79t-2.5 -83q46 49 120 49q94 0 149.5 -49t55.5 -147zM383 221q0 33 -2.5 58t-10 53t-25.5 43t-45 15q-53 0 -97 -60q-2 -27 -3 -59t2.5 -80t12.5 -84.5t30.5 -63.5t53.5 -27q29 0 47.5 19.5t25.5 57t9 63t2 65.5z" />
    <glyph glyph-name="seven" unicode="7" horiz-adv-x="486" 
d="M465 682l21 -1q-22 -121 -102 -263q-57 -101 -75.5 -163t-18.5 -174q0 -45 -24 -67.5t-54 -22.5q-72 0 -72 87q0 137 183 341q97 110 118 165l-5 4q-53 -78 -119 -78q-30 0 -74 20.5t-73 20.5q-33 0 -58 -24t-25 -62v-25h-25v242h22v-91l4 -1q21 49 56.5 75t76.5 26
q24 0 48 -16.5t40 -37t36.5 -37t37.5 -16.5q33 0 59 36q15 21 23 62z" />
    <glyph glyph-name="eight" unicode="8" horiz-adv-x="526" 
d="M440 546q0 -84 -95 -146l55 -42q54 -41 72 -82.5t18 -90.5q0 -91 -70 -142.5t-166 -51.5q-80 0 -139.5 46t-59.5 124q0 113 126 188l-46 37q-60 48 -60 140q0 69 60 116t136 47q68 0 118.5 -36t50.5 -107zM270 280l-66 49q-98 -55 -98 -169q0 -56 43.5 -99t104.5 -43
q63 0 97 31.5t34 83.5q0 29 -18.5 57t-37.5 44.5t-59 45.5zM273 665q-42 0 -64 -26.5t-22 -66.5q0 -46 73 -105l63 -50q22 18 34.5 31.5t24.5 40.5t12 60q0 49 -35.5 82.5t-85.5 33.5z" />
    <glyph glyph-name="nine" unicode="9" horiz-adv-x="585" 
d="M53 462q0 101 65 165t160 64q61 0 104.5 -14.5t77.5 -49.5t51 -98.5t17 -157.5q0 -163 -78.5 -271.5t-206.5 -108.5q-74 0 -124 33.5t-50 89.5q0 38 21 62.5t52 24.5q34 0 53.5 -19t19.5 -52q0 -29 -18.5 -49t-47.5 -20q-4 0 -13.5 2t-12.5 2t-3 -2q0 -7 13 -17.5
t40.5 -20t60.5 -9.5q37 0 64 19t42 47.5t24 70.5t11.5 79t2.5 83q-46 -49 -120 -49q-94 0 -149.5 49t-55.5 147zM198 461q0 -33 2.5 -58t10 -53t25.5 -43t45 -15q53 0 97 60q6 32 3.5 85t-8 104t-29.5 88t-62 37q-29 0 -47.5 -19.5t-25.5 -57t-9 -63t-2 -65.5z" />
    <glyph glyph-name="colon" unicode=":" horiz-adv-x="252" 
d="M200 370q0 -26 -17.5 -45.5t-44.5 -19.5q-26 0 -45.5 18t-19.5 46q0 26 18 45t45 19q26 0 45 -18t19 -45zM200 110q0 -26 -17.5 -45.5t-44.5 -19.5q-26 0 -45.5 18t-19.5 46q0 26 18 45t45 19q26 0 45 -18t19 -45z" />
    <glyph glyph-name="semicolon" unicode=";" horiz-adv-x="251" 
d="M148 121q30 -1 45.5 -24.5t15.5 -52.5q0 -46 -18.5 -88.5t-73.5 -99.5l-16 12q20 19 40.5 51.5t20.5 60.5q0 17 -1 20q-7 -2 -20 -2q-53 0 -53 62q0 27 17 44t43 17zM199 316q0 -26 -17.5 -45.5t-44.5 -19.5q-26 0 -45.5 18t-19.5 46q0 26 18 45t45 19q26 0 45 -18
t19 -45z" />
    <glyph glyph-name="equal" unicode="=" horiz-adv-x="608" 
d="M548 372h-488v43h488v-43zM548 241h-488v43h488v-43z" />
    <glyph glyph-name="question" unicode="?" horiz-adv-x="437" 
d="M417 554q0 -41 -23 -82t-50 -66.5t-66.5 -59t-53.5 -48.5q-58 -61 -58 -135h-25q0 102 37 162l15.5 25.5l16.5 27t14.5 25t14.5 28l11 26.5t10 29.5t5.5 28t2.5 30.5q0 50 -22 94.5t-68 44.5q-43 0 -79.5 -32.5t-36.5 -64.5q0 -10 10 -10q3 0 13.5 2t14.5 2
q24 0 42.5 -17t18.5 -46q0 -25 -16.5 -45.5t-49.5 -20.5q-28 0 -49 25.5t-21 54.5q0 82 52.5 130.5t134.5 48.5q88 0 146.5 -37.5t58.5 -119.5zM218 61q0 -26 -17.5 -45.5t-44.5 -19.5q-26 0 -45.5 18t-19.5 46q0 26 18 45t45 19q26 0 45 -18t19 -45z" />
    <glyph glyph-name="at" unicode="@" horiz-adv-x="831" 
d="M590 163q-48 0 -80 31.5t-32 70.5v10q-50 -102 -114 -102q-61 0 -86.5 42t-24.5 103q0 82 53.5 155t136.5 73q59 0 72 -65q9 34 15 59h86l-58 -272q0 -3 -1 -9.5t-2 -9.5q-7 -65 44 -65q54 0 96 70.5t43 145.5q0 116 -91 195t-216 79q-67 0 -118 -29.5t-80.5 -80.5
t-44 -111t-15.5 -130q0 -62 13.5 -114.5t43 -97t82 -70t123.5 -25.5q148 0 240 113l15 -18q-38 -48 -92.5 -76.5t-92 -35.5t-71.5 -7q-102 0 -182 35t-130.5 113t-50.5 189q1 72 22.5 133t57 103.5t82 72.5t96.5 44t100 14q135 0 233.5 -81.5t98.5 -219.5
q-1 -87 -48.5 -159.5t-122.5 -72.5zM491 438q0 47 -11 66t-34 19q-36 0 -70 -89t-34 -157q0 -81 32 -81q38 0 77.5 82t39.5 160z" />
    <glyph glyph-name="A" unicode="A" horiz-adv-x="623" 
d="M668 0h-340v18h20q30 0 47.5 15t17.5 41q0 13 -4 25l-50 171h-215l-49 -163q-7 -23 -7 -40q0 -49 52 -49h19v-18h-194v18h9q39 0 59 20.5t34 68.5l192 643h102l192 -643q15 -47 34 -67.5t63 -21.5h18v-18zM351 296l-101 330l-99 -330h200z" />
    <glyph glyph-name="B" unicode="B" horiz-adv-x="703" 
d="M643 196q0 -196 -275 -196h-352v18h9q52 0 71.5 21t19.5 73v526q0 52 -19 73t-72 21h-9v18h342q44 0 87.5 -9t85.5 -28.5t68 -58t26 -89.5q0 -65 -54 -111.5t-125 -61.5l1 -6q77 -11 136.5 -62.5t59.5 -127.5zM474 564q0 78 -51.5 119t-135.5 41h-31v-326h31q81 0 134 45
t53 121zM491 196q0 176 -189 176h-46v-346h48q79 0 133 45t54 125z" />
    <glyph glyph-name="C" unicode="C" horiz-adv-x="678" 
d="M618 273q-2 -124 -63.5 -204.5t-183.5 -80.5q-75 0 -133 21.5t-94 56.5t-59 85t-32 102t-9 112t8.5 113t31 106.5t57.5 91.5t94 62t135 24q58 0 116 -31q8 -4 20 -11t19.5 -11t17 -7.5t17.5 -3.5q14 0 25 14t12 38h18v-293h-26q0 63 -24 125.5t-74.5 108t-115.5 45.5
q-37 0 -66 -13t-48 -31t-32 -51t-19 -58.5t-9.5 -69.5t-4 -68.5t-0.5 -69.5v-10q0 -152 13 -211q32 -140 162 -140q110 0 165 72.5t56 186.5h26z" />
    <glyph glyph-name="D" unicode="D" horiz-adv-x="749" 
d="M705 375q0 -59 -13.5 -113.5t-41 -102t-66.5 -83t-94 -56t-120 -20.5h-354v18h32q36 0 52.5 22.5t16.5 72.5v524q0 50 -16.5 72.5t-52.5 22.5h-32v18h354q153 0 244 -108.5t91 -266.5zM553 375q0 61 -4 105t-18.5 93t-40.5 79.5t-72 51t-110 20.5h-51v-698h51
q64 0 110 20t71.5 50.5t40.5 79.5t19 93.5t4 105.5z" />
    <glyph glyph-name="E" unicode="E" horiz-adv-x="639" 
d="M579 0h-563v18h12q52 0 71.5 20.5t19.5 73.5v526q0 52 -19 73t-72 21h-9v18h551v-222h-26v37q0 61 -41 111t-101 50h-143v-323h29q75 0 100 26.5t25 104.5v33h26v-361h-26v38q0 76 -25.5 104.5t-100.5 28.5h-28v-351h154q70 0 105 59t35 136v37h26v-258z" />
    <glyph glyph-name="F" unicode="F" horiz-adv-x="578" 
d="M558 528h-26v37q0 64 -35.5 111.5t-96.5 47.5h-143v-321h29q73 0 93.5 26.5t20.5 106.5v33h26v-365h-26v38q0 80 -21 109t-94 26l-28 -1v-263q0 -95 69 -95h31v-18h-341v18h32q69 0 69 95v525q0 52 -19 73t-72 21h-9v18h541v-222z" />
    <glyph glyph-name="G" unicode="G" horiz-adv-x="735" 
d="M745 303h-57q-70 0 -70 -96v-207h-15l-80 59q-68 -71 -162 -71q-87 0 -151 32.5t-99 89t-51 122t-16 143.5q0 171 92.5 279.5t235.5 108.5q57 0 106 -30q11 -7 26 -19t25 -16.5t23 -4.5q18 0 32 19t15 38h18v-291h-26q-1 58 -27.5 121t-79 110t-114.5 47
q-100 0 -137 -86.5t-37 -275.5q0 -149 3 -182q14 -137 97 -168q28 -11 65 -11q56 0 86.5 28t30.5 70v95q0 96 -68 96h-32v18h367v-18z" />
    <glyph glyph-name="H" unicode="H" horiz-adv-x="775" 
d="M759 0h-326v18h14q72 0 72 93v278h-263v-277q0 -50 17.5 -72t54.5 -22h13v-18h-325v18h9q52 0 71.5 21t19.5 73v526q0 52 -19 72.5t-72 21.5h-9v18h325v-18h-13q-37 0 -54.5 -22t-17.5 -72v-223h263v223q0 49 -17.5 71.5t-54.5 22.5h-13v18h325v-18h-9q-51 0 -71 -21
t-20 -73v-527q0 -48 21 -70.5t70 -22.5h9v-18z" />
    <glyph glyph-name="I" unicode="I" horiz-adv-x="374" 
d="M358 0h-342v18h32q69 0 69 95v524q0 95 -69 95h-32v18h342v-18h-32q-69 0 -69 -95v-524q0 -95 69 -95h32v-18z" />
    <glyph glyph-name="J" unicode="J" horiz-adv-x="468" 
d="M454 732h-10q-51 0 -70.5 -21t-19.5 -73v-444q0 -93 -54 -149.5t-142 -56.5q-68 0 -106 35.5t-38 97.5q0 40 18.5 60.5t45.5 20.5q28 0 44 -18.5t16 -43.5q0 -24 -15 -41.5t-41 -17.5q-14 0 -30 9q1 -34 30 -55t66 -21q66 0 66 103v521q0 52 -19 72.5t-72 21.5h-10v18
h341v-18z" />
    <glyph glyph-name="K" unicode="K" horiz-adv-x="734" 
d="M304 384l-52 -62v-210q0 -57 18 -78q15 -16 73 -16h8v-18h-335v18h9q53 0 72.5 21.5t19.5 72.5v526q0 53 -20 73.5t-72 20.5h-9v18h315v-18h-8q-50 -1 -60.5 -17t-10.5 -67v-10v-275l188 223q46 53 46 92q0 54 -95 54v18h280v-17l-1 -1q-78 -4 -138 -76l-131 -158
l230 -383q59 -97 156 -97h4v-18h-371v18q64 0 64 41q0 29 -21 63z" />
    <glyph glyph-name="L" unicode="L" horiz-adv-x="581" 
d="M571 0h-555v18h9q53 0 73 20.5t20 73.5v525q0 95 -69 95h-32v18h341v-18h-31q-69 0 -69 -95v-611h157q70 0 100 57t30 138v37h26v-258z" />
    <glyph glyph-name="M" unicode="M" horiz-adv-x="884" 
d="M868 0h-326v18h13q72 0 72 93v613h-3l-232 -712h-16l-231 712h-4v-612q0 -49 17.5 -71.5t54.5 -22.5h13v-18h-210v18h8q52 0 71.5 21t19.5 73v526q0 52 -19 72.5t-72 21.5h-8v18h272l158 -489l159 489h263v-18h-9q-52 0 -72 -20.5t-20 -73.5v-527q0 -52 19 -72.5
t73 -20.5h9v-18z" />
    <glyph glyph-name="N" unicode="N" horiz-adv-x="731" 
d="M715 732h-31q-70 0 -70 -95q0 -106 -0.5 -318.5t-0.5 -318.5h-44l-423 632l-1 -519q0 -95 69 -95h32v-18h-229v18h32q70 0 70 95v511q0 45 -21 76.5t-63 31.5h-19v18h221l351 -526v411q0 51 -17 74t-53 23h-33v18h230v-18z" />
    <glyph glyph-name="O" unicode="O" 
d="M696 374q0 -172 -83.5 -279t-242.5 -107q-160 0 -243 107.5t-83 279.5t83 279.5t243 107.5q161 0 243.5 -107.5t82.5 -280.5zM541 374q0 46 -0.5 68t-3.5 67.5t-9 70.5t-18.5 59.5t-30 52t-45.5 31t-64 13.5q-28 0 -51 -8t-39.5 -19.5t-29.5 -32.5t-21.5 -39t-14.5 -48
t-9 -50t-4.5 -54.5t-1.5 -52.5v-52v-5v-5v-52t1.5 -52.5t4.5 -54.5t9 -50t14.5 -48t21.5 -39t29.5 -32.5t39.5 -19.5t51 -8t51.5 8t40 19.5t29.5 33.5t21.5 39.5t14 49t8.5 50.5t4.5 55.5t1.5 52.5v52z" />
    <glyph glyph-name="P" unicode="P" horiz-adv-x="644" 
d="M621 556q0 -88 -74 -140.5t-169 -52.5h-123v-251q0 -55 18.5 -74.5t72.5 -19.5h9v-18h-339v18h9q54 0 72 19.5t18 74.5v526q0 52 -19 73t-71 21h-9v18h363q48 0 89.5 -10.5t76.5 -32.5t55.5 -60.5t20.5 -90.5zM470 556q0 91 -40.5 129.5t-132.5 38.5h-42v-335h41
q174 0 174 167z" />
    <glyph glyph-name="Q" unicode="Q" 
d="M696 374q0 -162 -70 -260.5t-198 -123.5v-74q0 -46 3 -65t15 -19q19 0 37 54t28 108l22 -3q-36 -213 -129 -213q-38 0 -60.5 26.5t-22.5 69.5v118q-130 13 -203.5 116t-73.5 267q0 172 83 279.5t243 107.5q161 0 243.5 -107.5t82.5 -280.5zM199 375q0 -116 7 -173
t30 -106q46 57 105 57q86 0 86 -101v-29q31 10 52.5 36.5t33.5 58.5t18.5 79.5t8 85.5t1.5 91q0 46 -0.5 68t-3.5 67.5t-9 70.5t-18.5 59.5t-30 52t-45.5 31t-64 13.5q-28 0 -51 -8t-39.5 -19.5t-29.5 -32.5t-21.5 -39t-14.5 -48t-9 -50t-4.5 -54.5t-1.5 -52.5v-52v-5z
M285 108q-11 0 -22 -8.5t-17 -21.5q11 -17 33 -34.5t42 -24.5q0 47 -7.5 68t-28.5 21z" />
    <glyph glyph-name="R" unicode="R" horiz-adv-x="727" 
d="M727 -1h-110q-69 0 -105 31.5t-46 103.5l-16 103q-20 130 -122 130h-73v-255q0 -53 19 -73.5t72 -20.5h9v-18h-339v18h9q53 0 71.5 20t18.5 74v526q0 52 -18.5 73t-71.5 21h-9v18h363q241 0 241 -183q0 -65 -43 -116t-113 -74q57 -18 89 -50q32 -35 52 -137q2 -9 6 -36
t6.5 -39.5t10.5 -34.5t18 -32.5t27.5 -19t40.5 -8.5h13v-21zM469 567q0 157 -172 157h-42v-331h41q75 0 124 48t49 126z" />
    <glyph glyph-name="S" unicode="S" horiz-adv-x="579" 
d="M251 492l122 -55q85 -38 122.5 -86.5t37.5 -142.5q0 -90 -67 -155t-175 -65q-52 0 -126 30q-46 19 -55 19q-25 0 -33 -37h-18v231h25v-12q0 -96 64 -150.5t146 -54.5q66 0 112 36.5t46 92.5q0 53 -32.5 84.5t-91.5 58.5l-115 52q-73 33 -110 85.5t-37 140.5q0 84 62 141
t156 57q32 0 69 -15.5t63 -31t31 -15.5q8 0 13 2t9.5 13t4.5 31v4h18v-228h-26q-1 88 -57.5 151t-128.5 63q-57 0 -98 -37.5t-41 -90.5q0 -38 29 -65t81 -51z" />
    <glyph glyph-name="T" unicode="T" horiz-adv-x="610" 
d="M579 471h-26q-1 131 -35.5 192t-112.5 61h-30v-612q0 -51 19.5 -72.5t71.5 -21.5h8v-18h-339v18h9q52 0 71.5 21t19.5 73v612h-30q-40 0 -68.5 -16t-43 -37t-23 -60t-10.5 -65.5t-4 -74.5h-26v279h549v-279z" />
    <glyph glyph-name="U" unicode="U" 
d="M713 732h-32q-36 0 -52.5 -22.5t-16.5 -72.5v-416q0 -233 -225 -233q-118 0 -187 57.5t-69 175.5l-1 417q0 52 -19 73t-72 21h-9v18h325v-18h-13q-37 0 -54.5 -22.5t-17.5 -71.5v-434q0 -85 33.5 -138.5t110.5 -53.5q81 0 126.5 53.5t45.5 137.5v432q0 51 -17.5 74
t-53.5 23h-31v18h229v-18z" />
    <glyph glyph-name="V" unicode="V" horiz-adv-x="636" 
d="M647 732h-20q-52 0 -72 -62l-218 -670h-56l-212 661q-10 29 -34 50t-55 21h-28v18h346v-18h-34q-46 0 -46 -54q0 -21 7 -44l144 -452l158 487q4 14 4 26q0 37 -39 37h-28v18h183v-18z" />
    <glyph glyph-name="W" unicode="W" horiz-adv-x="997" 
d="M648 0l-162 515l-167 -515h-54l-211 661q-10 29 -34 50t-55 21h-28v18h344v-18h-34q-47 0 -47 -53q0 -17 8 -45l144 -445l121 369l-35 105q-9 29 -34.5 49t-56.5 20h-28v18h347v-18h-43q-36 0 -36 -51q0 -22 8 -46l141 -449l157 484q4 12 4 25q0 37 -39 37h-27v18h181
v-18h-20q-50 0 -70 -61l-218 -671h-56z" />
    <glyph glyph-name="X" unicode="X" horiz-adv-x="628" 
d="M255 642l94 -175l130 203q10 16 10 32q0 30 -37 30h-27v18q36 0 101 -0.5t101 -0.5v-18h-20q-58 0 -87 -46l-157 -245l190 -350q39 -72 99 -72h24v-18h-370v18h29q28 0 45 13.5t17 35.5q0 16 -9 34l-126 233l-149 -235q-10 -16 -10 -31q0 -22 19 -36t47 -14h29v-18h-243
v18h25q52 0 104 81l164 260l-165 307q-35 66 -88 66h-28v18h350v-18h-44q-33 0 -33 -36q0 -26 15 -54z" />
    <glyph glyph-name="Y" unicode="Y" horiz-adv-x="612" 
d="M280 732q-26 0 -39.5 -13.5t-13.5 -35.5q0 -21 12 -41l126 -243l138 260q9 17 9 33q0 18 -11 29t-32 11h-19v18h173v-18h-19q-25 0 -40 -13.5t-30 -43.5l-156 -295l1 -267q0 -95 69 -95h31v-18h-341v18h31q70 0 70 95v221l-166 333q-33 65 -88 65h-28v18h357v-18h-34z
" />
    <glyph glyph-name="Z" unicode="Z" horiz-adv-x="606" 
d="M601 730l-421 -705q26 1 222 1q73 0 110.5 56.5t37.5 138.5q0 7 -0.5 20.5t-0.5 16.5h26v-258h-560v20l420 704h-191q-63 0 -107 -46.5t-44 -112.5v-37h-26v222h534v-20z" />
    <glyph glyph-name="bracketleft" unicode="[" horiz-adv-x="321" 
d="M65 -229v979h191v-25h-124v-929h124v-25h-191z" />
    <glyph glyph-name="backslash" unicode="\" horiz-adv-x="291" 
d="M241 -9l-211 753l35 7l211 -750z" />
    <glyph glyph-name="bracketright" unicode="]" horiz-adv-x="321" 
d="M256 750v-979h-191v25h124v929h-124v25h191z" />
    <glyph glyph-name="underscore" unicode="_" horiz-adv-x="413" 
d="M412 -95l-414 -1v23h414v-22z" />
    <glyph glyph-name="grave" unicode="`" horiz-adv-x="399" 
d="M345 558l-215 181h128l123 -181h-36z" />
    <glyph glyph-name="a" unicode="a" horiz-adv-x="519" 
d="M505 143v-62q0 -42 -27 -65t-81 -23q-39 0 -69.5 23.5t-35.5 61.5q-46 -85 -143 -85q-52 0 -85.5 26t-33.5 81q0 66 47 109.5t123 62.5l92 23v74q0 66 -10 86q-15 32 -60 32q-54 0 -85 -21q-4 -3 -4 -5q0 -3 3 -3q17 -4 30 -19t13 -36q0 -25 -18 -44t-44 -19
q-23 0 -39 16t-16 40q0 54 50.5 83.5t109.5 29.5q35 0 65 -5.5t63 -20t52.5 -46.5t19.5 -79v-287q0 -43 27 -43q17 0 25.5 16t8.5 37v62h22zM293 126l-1 147q-70 -18 -96 -42q-34 -31 -34 -118q0 -29 17 -47.5t41 -18.5q44 0 73 79z" />
    <glyph glyph-name="b" unicode="b" horiz-adv-x="583" 
d="M543 275q0 -118 -61 -201t-154 -83q-82 0 -130 85l-94 -76h-19v672q0 38 -10.5 49.5t-47.5 11.5h-9v17h196v-310q46 69 123 69q92 0 149 -64.5t57 -169.5zM408 259q0 128 -21.5 176.5t-68.5 48.5q-35 0 -67 -33t-37 -70v-275q6 -32 37 -62.5t74 -30.5q26 0 43.5 19.5
t25.5 57.5t11 76.5t3 92.5z" />
    <glyph glyph-name="c" unicode="c" horiz-adv-x="480" 
d="M422 160h22v-5q0 -65 -48.5 -114.5t-113.5 -49.5q-114 0 -178 68t-64 184q0 111 65.5 188.5t176.5 77.5q161 0 161 -142q0 -25 -18 -45.5t-44 -20.5q-25 0 -41.5 14.5t-16.5 44.5q0 26 15.5 44.5t39.5 18.5q11 0 11 10q0 9 -7 16q-38 38 -100 38q-34 0 -56 -22t-31 -63
t-12 -74t-3 -79t1.5 -76t7.5 -63.5t16.5 -52.5t30 -31.5t46.5 -12.5q58 0 99 42.5t41 100.5v4z" />
    <glyph glyph-name="d" unicode="d" horiz-adv-x="591" 
d="M584 0h-209l-1 74q-48 -83 -129 -83q-38 0 -71.5 12.5t-65 40t-50 81t-18.5 125.5q0 131 61.5 195t154.5 64q36 0 69.5 -18.5t49.5 -50.5v248q0 46 -56 46h-23v16h209v-687q0 -45 57 -45h22v-18zM375 183v128q0 176 -112 176q-22 0 -38.5 -15.5t-24.5 -37t-13 -56.5
t-6 -62.5t-1 -65.5q0 -39 0.5 -63t3 -55t7 -49.5t13 -36t21 -25.5t30.5 -8q53 0 86.5 53t33.5 117z" />
    <glyph glyph-name="e" unicode="e" horiz-adv-x="507" 
d="M446 162h22q-7 -82 -57 -126.5t-121 -44.5q-117 0 -183.5 69.5t-66.5 189.5q0 103 66.5 181t174.5 78q94 0 145 -58t51 -169h-297v-32q0 -114 14 -159q25 -78 96 -78q63 0 107 39t49 110zM281 487q-56 0 -78 -44.5t-23 -138.5h177q0 6 1 25.5t0.5 33t-2 34t-6.5 34.5
t-13 28t-22.5 21t-33.5 7z" />
    <glyph glyph-name="f" unicode="f" horiz-adv-x="360" 
d="M411 649q0 -32 -18 -52t-46 -20q-25 0 -41.5 18.5t-16.5 46.5q0 20 16.5 39.5t41.5 24.5q7 2 8 4t-4 7q-23 23 -62 23q-37 0 -55 -33.5t-18 -86.5v-120h96v-22h-96v-403q0 -37 10.5 -47t46.5 -10h9v-18h-262v18h9q36 0 46.5 10.5t10.5 46.5v403h-90v22h90v73
q0 88 59.5 138.5t139.5 50.5q50 0 88 -30t38 -83z" />
    <glyph glyph-name="g" unicode="g" horiz-adv-x="494" 
d="M472 -47q0 -85 -82 -138t-193 -53q-183 0 -183 102q0 59 76 108q-25 14 -42 38.5t-11 49.5q5 35 44 63.5t91 40.5q-127 22 -127 168q0 78 56 127.5t140 49.5q91 0 135 -39l101 33l7 -21l-93 -31q44 -66 44 -119q0 -85 -54 -130.5t-141 -47.5q-33 -3 -75 -16t-42 -29
q0 -27 75 -27h5h94q74 0 124.5 -32t50.5 -97zM311 332q0 155 -71 155q-70 0 -70 -155q0 -156 70 -156q71 0 71 156zM426 -88q0 10 -5.5 17t-18.5 11t-23 6.5t-30 3.5t-28.5 1h-28.5h-93q-60 0 -86 8q-1 -1 -10 -8.5t-11.5 -10.5l-8 -10t-7.5 -13.5t-2 -14.5q0 -45 52.5 -72
t108.5 -27q41 0 83.5 11t75 37t32.5 61z" />
    <glyph glyph-name="h" unicode="h" horiz-adv-x="588" 
d="M574 -1h-246v19h7q43 0 43 54v265q0 33 -1 51.5t-4.5 39.5t-10.5 31t-20.5 16.5t-32.5 5.5q-24 -1 -55 -28.5t-38 -64.5v-316q0 -36 9.5 -44.5t47.5 -9.5h4v-18h-257v18h9q37 1 47 10t10 44v601q0 59 -49 59h-17v18h196v-304q56 63 126 63q69 0 117.5 -41t48.5 -129v-267
q0 -36 9 -44.5t45 -9.5h12v-19z" />
    <glyph glyph-name="i" unicode="i" horiz-adv-x="303" 
d="M215 662q0 -27 -18 -45.5t-44 -18.5q-27 0 -45.5 18t-18.5 45q0 26 18.5 46t44.5 20q27 0 45 -19.5t18 -45.5zM283 0h-263v18h9q31 0 44.5 13.5t13.5 46.5v345q0 59 -50 59h-17v18h197v-422q0 -32 12.5 -46t44.5 -14h9v-18z" />
    <glyph glyph-name="j" unicode="j" horiz-adv-x="328" 
d="M240 662q0 -27 -18.5 -45t-44.5 -18q-27 0 -45 17.5t-18 44.5t18 46.5t44 19.5q27 0 45.5 -19.5t18.5 -45.5zM242 500v-490q0 -114 -52.5 -181t-150.5 -67q-45 0 -84.5 28.5t-39.5 82.5q0 30 18.5 47.5t44.5 17.5q28 0 43 -17.5t15 -44.5q0 -25 -17 -43t-45 -18
q-4 0 -4 -2q-1 -4 6 -10.5t24 -12.5t39 -6q73 0 73 119v520q0 59 -49 59h-17v18h196z" />
    <glyph glyph-name="k" unicode="k" horiz-adv-x="536" 
d="M541 0h-138q-33 0 -46 17q-7 9 -12 19.5t-10.5 28.5t-8.5 29t-10 39.5l-10 41.5q-19 77 -71 77h-19v-174q0 -60 44 -60h12v-18h-252v18h12q34 0 44 11.5t10 48.5v553q0 60 -49 60h-17v17h196v-434h16q28 0 49.5 21t30.5 53l26 85q22 72 87 72q33 0 57.5 -16.5t24.5 -48.5
t-17 -48.5t-41 -16.5t-37 16.5t-13 38.5q0 11 5.5 22.5t11.5 18.5t6 9q0 3 -8 3q-37 0 -54 -56l-28 -88q-19 -61 -48 -70v-2q129 -5 146 -71q1 -2 5 -19t7.5 -30t9.5 -33.5t13 -35.5t15.5 -29.5t19 -22.5t21.5 -8h20v-18z" />
    <glyph glyph-name="l" unicode="l" horiz-adv-x="302" 
d="M282 0h-263v18h9q32 0 45 13.5t13 46.5v592q0 60 -50 60h-17v18h197v-670q0 -31 12 -45t45 -15h9v-18z" />
    <glyph glyph-name="m" unicode="m" horiz-adv-x="862" 
d="M848 0h-247v19h7q44 0 44 60v244q0 39 -2 63.5t-8 49t-19.5 35.5t-35.5 11q-25 0 -53 -29t-35 -66v-308q0 -31 11.5 -45.5t42.5 -14.5h3v-19h-232v19h1q44 0 44 60v249q0 80 -12 117t-53 37q-26 0 -54 -29t-34 -66v-309q0 -32 12.5 -46t45.5 -14h5v-18h-259v18h9
q30 0 43.5 14t13.5 46v345q0 59 -49 59h-17v18h196v-54q44 63 119 63q111 0 151 -89q40 89 132 89q81 0 122.5 -39.5t41.5 -130.5v-260q0 -32 11 -46t43 -14h12v-19z" />
    <glyph glyph-name="n" unicode="n" horiz-adv-x="588" 
d="M574 -1h-246v19h7q43 0 43 54v265q0 77 -14.5 110.5t-60.5 33.5q-20 0 -48 -22t-39 -58v-329q0 -36 9.5 -44.5t47.5 -9.5h4v-18h-257v18h9q37 1 47 10t10 44v351q0 59 -49 59h-17v18h196v-54q45 63 126 63q69 0 117.5 -41t48.5 -129v-267q0 -36 9 -44.5t45 -9.5h12v-19z
" />
    <glyph glyph-name="o" unicode="o" horiz-adv-x="564" 
d="M524 256q0 -119 -68 -192t-174 -73t-174 73t-68 192q0 118 66 185.5t176 67.5q107 0 174.5 -67.5t67.5 -185.5zM384 256v29.5t-1 33.5t-3.5 39.5l-7 37t-12 36.5t-18 27.5t-26 21t-34.5 6.5t-34.5 -6.5t-26 -21t-18 -27.5t-12 -36.5l-7 -37t-3.5 -39.5t-1 -33.5v-29.5
v-29.5t1 -35t3.5 -41.5l7 -39t12 -39t18 -29.5t26 -22.5t34.5 -7t34.5 7t26 22.5t18 29.5t12 39l7 39t3.5 41.5t1 35v29.5z" />
    <glyph glyph-name="p" unicode="p" horiz-adv-x="582" 
d="M542 260q0 -122 -61.5 -195.5t-172.5 -73.5q-24 0 -52 12.5t-41 30.5v-192q0 -53 74 -53h15v-18h-308v18h16q73 0 73 53v581q0 35 -10 47q-12 12 -47 12h-9v18h196v-54q16 27 46.5 45t63.5 18q110 0 163.5 -65t53.5 -184zM402 250q0 117 -10 159q-18 78 -72 78
q-33 0 -69 -35t-36 -78v-277q0 -36 30 -60t62 -24q29 0 49.5 25t29.5 66t12.5 76t3.5 70z" />
    <glyph glyph-name="q" unicode="q" horiz-adv-x="586" 
d="M579 482h-22q-57 0 -57 -46v-587q0 -37 11 -49t47 -12h9v-17h-263v17h9q35 0 46 12.5t11 48.5v213q-45 -71 -120 -71q-99 0 -154.5 68.5t-55.5 189.5q0 113 54 186.5t156 73.5q42 0 74 -21t46 -53v65h209v-18zM370 162v175q0 56 -31.5 103t-83.5 47q-27 0 -44 -18
t-24.5 -56t-9.5 -72.5t-2 -91.5q0 -51 2.5 -86t10 -73t25.5 -57.5t45 -19.5q49 0 79.5 45t32.5 104z" />
    <glyph glyph-name="r" unicode="r" horiz-adv-x="438" 
d="M424 409q0 -28 -15.5 -49t-40.5 -21q-56 0 -56 58q0 24 16.5 42t39.5 18q8 0 8 4q0 3 -5.5 8t-18 10t-27.5 5q-48 0 -78.5 -43t-30.5 -88v-281q0 -36 10 -45t47 -9h9v-18h-262v18h9q37 0 47 9.5t10 44.5v357q0 53 -49 53h-17v18h196v-65q14 27 44.5 48.5t65.5 21.5
q54 0 76 -30.5t22 -65.5z" />
    <glyph glyph-name="s" unicode="s" horiz-adv-x="449" 
d="M414 146q0 -68 -53 -111.5t-148 -43.5q-66 0 -122 53l-18 -44h-14v167h22v-42q0 -44 45 -78t91 -34q117 0 117 75q0 56 -76 83l-108 44q-61 22 -80.5 54.5t-19.5 86.5q0 60 50 107.5t124 45.5q62 -1 119 -55q17 38 19 46h15v-161h-22v26q0 46 -42 84t-89 38
q-48 0 -80.5 -22.5t-32.5 -50.5q0 -20 16.5 -37.5t47.5 -28.5l120 -46q71 -30 95 -69t24 -87z" />
    <glyph glyph-name="t" unicode="t" horiz-adv-x="352" 
d="M312 153v-61q0 -51 -22.5 -77.5t-88.5 -26.5q-48 0 -82 33t-34 87v370h-65v22h29q41 0 92.5 53t51.5 115h22v-168h94v-22h-94v-407q0 -15 10 -33t27 -18q16 0 27 16.5t11 34.5v82h22z" />
    <glyph glyph-name="u" unicode="u" horiz-adv-x="595" 
d="M575 0h-196v53q-38 -62 -106 -62q-81 0 -133.5 42t-52.5 138v252q0 37 -10.5 48.5t-44.5 11.5h-12v17h197v-337q0 -40 2 -63t8.5 -45t21.5 -31.5t39 -9.5q35 0 59 27t32 67v315q0 37 -11.5 48.5t-45.5 11.5h-9v17h196v-423q0 -59 50 -59h16v-18z" />
    <glyph glyph-name="v" unicode="v" horiz-adv-x="449" 
d="M485 482h-17q-45 0 -64 -51l-157 -431h-54l-154 437q-16 45 -64 45h-5v18h261v-18h-10q-41 0 -41 -40q0 -17 5 -31l90 -268l102 279q4 11 4 21q0 19 -15 29t-39 10h-10v18h168v-18z" />
    <glyph glyph-name="w" unicode="w" horiz-adv-x="706" 
d="M445 0l-106 338l-108 -338h-55l-138 437q-18 45 -64 45h-4v18h243v-18h-4q-40 0 -35 -41q1 -11 7 -30l77 -253l69 216l-9 31.5l-7.5 26t-6.5 19t-7 15t-7.5 9t-10.5 6t-14 1.5h-4v18h234v-18h-7q-43 0 -43 -43q0 -16 4 -28l79 -250l86 267q3 10 3 19q0 35 -53 35h-20v18
h178v-18h-17q-50 0 -64 -45l-142 -437h-54z" />
    <glyph glyph-name="x" unicode="x" horiz-adv-x="485" 
d="M227 430l53 -100l76 113q5 10 5 15q0 24 -41 24h-19v18h165v-18h-20q-38 0 -67 -43l-88 -131l129 -239q27 -51 65 -51h25v-18h-282v18q54 0 54 31q0 10 -7 21l-72 135l-94 -146q-6 -9 -6 -16q0 -11 11 -18t27 -7h18v-18h-169v18h23q39 0 77 53q-1 0 102 156l-111 209
q-24 46 -62 46h-13v18h256v-18h-10q-34 0 -34 -24q0 -12 9 -28z" />
    <glyph glyph-name="y" unicode="y" horiz-adv-x="482" 
d="M518 482h-24q-52 0 -74 -69l-178 -525q-43 -126 -143 -126q-33 0 -61 21t-28 55q0 28 16.5 48.5t47.5 20.5q26 0 42 -17.5t16 -43.5q0 -21 -10 -34t-20 -18t-10 -7q0 -4 15 -4q37 0 67 29.5t47 83.5l6 19l-176 516q-17 51 -64 51h-17v18h276v-18h-26q-31 0 -31 -34
q0 -19 8 -43l97 -296l104 308q4 11 4 22q0 19 -12 31t-36 12h-25v18h189v-18z" />
    <glyph glyph-name="z" unicode="z" horiz-adv-x="464" 
d="M412 0h-412v20l284 458h-123q-38 0 -66 -26t-29 -66q0 -4 -0.5 -13.5t-0.5 -13.5h-22v141h391v-19l-284 -459h88q152 0 152 103v22h22v-147z" />
    <glyph glyph-name="braceleft" unicode="{" horiz-adv-x="361" 
d="M296 -204v-24q-84 0 -126.5 29t-42.5 111v223q0 28 -0.5 39t-3 27.5t-9.5 23t-18.5 14t-30.5 12.5v20q44 12 53 33t9 83v223q0 82 42.5 111t126.5 29v-24q-64 0 -80.5 -26.5t-16.5 -91.5v-205q0 -68 -12.5 -98.5t-56.5 -42.5v-2q44 -12 56.5 -42.5t12.5 -98.5v-205
q0 -36 1.5 -52t10.5 -34.5t29 -25t56 -6.5z" />
    <glyph glyph-name="bar" unicode="|" horiz-adv-x="222" 
d="M111 -250v1000h50v-1000h-50z" />
    <glyph glyph-name="braceright" unicode="}" horiz-adv-x="361" 
d="M65 -228v24q36 0 56 6.5t29 25t10.5 34.5t1.5 52v205q0 68 12.5 98.5t56.5 42.5v2q-44 12 -56.5 42.5t-12.5 98.5v205q0 26 -1 41t-6 32t-15.5 25.5t-29 14t-45.5 5.5v24q84 0 126.5 -29t42.5 -111v-223q0 -28 0.5 -39t3 -27.5t9.5 -23t18.5 -14t30.5 -12.5v-20
q-44 -12 -53 -33t-9 -83v-223q0 -82 -42.5 -111t-126.5 -29z" />
    <glyph glyph-name="nbspace" unicode="&#xa0;" horiz-adv-x="240" 
 />
    <glyph glyph-name="exclamdown" unicode="&#xa1;" horiz-adv-x="306" 
d="M75 115q0 18 2 32.5t8 45.5t11 71q5 36 16.5 106.5l19.5 123t8 73.5h25q0 -21 7.5 -72t19.5 -121t17 -109q6 -42 12 -73.5t8 -44.5t2 -32q0 -56 -24 -87.5t-54 -31.5q-31 0 -54.5 31.5t-23.5 87.5zM86 656q0 26 17.5 45.5t44.5 19.5q26 0 45.5 -18t19.5 -46
q0 -26 -18 -45t-45 -19q-26 0 -45 18t-19 45z" />
    <glyph glyph-name="currency" unicode="&#xa4;" horiz-adv-x="621" 
d="M180 194q54 -55 132 -55q77 0 131 55q55 55 55 131q0 75 -55 132q-55 55 -131 55q-77 0 -132 -55q-54 -55 -54 -132t54 -131zM545 67l-90 89q-64 -53 -144 -53q-84 0 -144 53l-90 -89l-25 25l90 90q-53 62 -53 143q0 83 53 145l-92 92l26 25l92 -92q62 53 143 53
q80 0 144 -53l91 91l25 -25l-91 -91q53 -62 53 -145q0 -82 -52 -143l89 -89z" />
    <glyph glyph-name="brokenbar" unicode="&#xa6;" horiz-adv-x="156" 
d="M103 440h-31v307h31v-307zM103 0h-31v307h31v-307z" />
    <glyph glyph-name="section" unicode="&#xa7;" horiz-adv-x="434" 
d="M423 216q0 -110 -120 -138v-2q93 -72 93 -159q0 -61 -54 -108.5t-126 -47.5q-80 0 -129.5 34t-49.5 97q0 23 15 38.5t39 15.5q27 0 41.5 -17.5t14.5 -45.5q0 -20 -9 -32t-18 -18t-9 -11q0 -18 39 -27t66 -9q97 0 97 81q0 9 -1.5 16.5t-6 16t-8.5 14.5t-14 16l-17.5 17
t-24 20l-28 22l-34.5 27l-40 31q-35 28 -51.5 42.5t-35.5 38.5t-26 50t-7 62q0 55 31.5 96t85.5 51v2q-40 31 -61 63t-24 48t-3 39q0 63 53.5 108.5t123.5 45.5q82 0 132 -33.5t50 -97.5q0 -21 -18 -37t-37 -16q-29 0 -44.5 16.5t-15.5 44.5q0 27 27 49q14 12 14 16
q0 10 -40 21.5t-68 11.5q-44 0 -74 -19t-30 -44q0 -20 14 -41.5t27.5 -34.5t45.5 -40l104 -88q57 -48 84 -88.5t27 -96.5zM353 158q0 45 -82 120t-129 75q-23 0 -42 -14t-19 -42q0 -36 51 -89q97 -100 153 -100q68 0 68 50z" />
    <glyph glyph-name="dieresis" unicode="&#xa8;" horiz-adv-x="492" 
d="M187 636q0 -26 -17.5 -45.5t-44.5 -19.5q-26 0 -45.5 18t-19.5 46q0 26 18 45t45 19q26 0 45 -18t19 -45zM393 636q0 -26 -17.5 -45.5t-44.5 -19.5q-26 0 -45.5 18t-19.5 46q0 26 18 45t45 19q26 0 45 -18t19 -45z" />
    <glyph glyph-name="copyright" unicode="&#xa9;" horiz-adv-x="760" 
d="M673 329q0 -121 -85.5 -216t-208.5 -95q-118 0 -208.5 92.5t-90.5 218.5q0 78 37.5 149t107.5 117.5t154 46.5q121 0 207.5 -93.5t86.5 -219.5zM648 329q0 109 -77.5 198.5t-191.5 89.5q-112 0 -192.5 -86t-80.5 -202q0 -111 78.5 -198.5t194.5 -87.5q109 0 189 86
t80 200zM495 279l19 -1q0 -67 -36.5 -112.5t-103.5 -45.5q-82 0 -126.5 52.5t-44.5 155.5q0 52 18.5 100.5t60 83.5t97.5 35q41 0 68 -21q24 -21 32 -21q9 0 14 13t5 24h13v-172h-13q0 56 -32 106q-38 55 -87 55q-100 0 -100 -203q0 -31 0.5 -49.5t5.5 -49t14.5 -48
t28.5 -31t46 -13.5q59 0 89 39.5t32 102.5z" />
    <glyph glyph-name="guillemotleft" unicode="&#xab;" horiz-adv-x="447" 
d="M389 83l-15 -9l-160 172l160 171l15 -8l-88 -163zM230 83l-16 -9l-158 172l158 171l16 -8l-89 -163z" />
    <glyph glyph-name="logicalnot" unicode="&#xac;" horiz-adv-x="531" 
d="M500 107h-36v258h-436v35h472v-293z" />
    <glyph glyph-name="registered" unicode="&#xae;" horiz-adv-x="760" 
d="M76 331q0 126 89.5 215.5t215.5 89.5t215.5 -89.5t89.5 -215.5t-89.5 -215.5t-215.5 -89.5t-215.5 89.5t-89.5 215.5zM101 331q0 -116 82 -198t198 -82t198 82t82 198t-82 198t-198 82t-198 -82t-82 -198zM563 125h-31q-55 0 -73 26q-12 23 -26 114q-6 36 -15.5 51.5
t-29.5 15.5h-61v-141q0 -31 9.5 -42t38.5 -11h8v-13h-173v13h13q25 0 31 9t6 38v296q0 20 -1.5 29t-9.5 16.5t-26 7.5h-13v12h176q66 0 102.5 -27t36.5 -79q0 -81 -92 -102q47 -20 55 -34q6 -10 20 -74t14 -65q6 -16 11 -21.5t19 -5.5h11v-13zM454 440q0 49 -19 69.5
t-67 20.5h-41v-181h40q47 0 67 22t20 69z" />
    <glyph glyph-name="degree" unicode="&#xb0;" horiz-adv-x="400" 
d="M307 530q0 44 -32 76t-76 32t-76 -31.5t-32 -76.5t31.5 -77t76.5 -32q44 0 76 32t32 77zM343 530q0 -60 -42.5 -102.5t-101.5 -42.5q-60 0 -102 42.5t-42 102.5t42.5 102t101.5 42t101.5 -42.5t42.5 -101.5z" />
    <glyph glyph-name="plusminus" unicode="&#xb1;" horiz-adv-x="608" 
d="M548 444v-36h-225v-232h-38v232h-225v36h225v227h38v-227h225zM540 108h-480v36h480v-36z" />
    <glyph glyph-name="acute" unicode="&#xb4;" horiz-adv-x="563" 
d="M458 738l-205 -180h-26l110 180h121z" />
    <glyph glyph-name="mu" unicode="&#xb5;" horiz-adv-x="484" 
d="M489 71q0 -73 -74 -73q-44 0 -73 22.5t-34 59.5q-16 -38 -51.5 -60.5t-74.5 -22.5q-85 0 -122 56q0 -31 11 -95q12 -63 12 -108q0 -65 -34 -65q-44 0 -44 83q0 31 10 90q10 60 10 98v444h125v-355q0 -112 51 -112q41 0 61 28.5t20 72.5v366h124v-437q0 -30 28 -30
q27 0 27 30v90h28v-82z" />
    <glyph glyph-name="paragraph" unicode="&#xb6;" horiz-adv-x="518" 
d="M502 -65h-163v794h-46v-794h-163v18q52 0 65.5 22.5t13.5 83.5v300q-90 1 -143 52t-53 147q0 92 53 140.5t143 48.5h293v-18h-26q-17 0 -28 -8t-16 -23.5t-6.5 -29t-1.5 -32.5v-588q0 -50 15 -71.5t63 -23.5v-18zM209 381v344q-19 0 -33 -6.5t-22 -20.5t-13 -27t-7 -36
t-2.5 -37t-0.5 -41q0 -92 16 -133.5t62 -42.5z" />
    <glyph glyph-name="periodcentered" unicode="&#xb7;" horiz-adv-x="247" 
d="M187 333q0 -26 -17.5 -45.5t-44.5 -19.5q-26 0 -45.5 18t-19.5 46q0 26 18 45t45 19q26 0 45 -18t19 -45z" />
    <glyph glyph-name="cedilla" unicode="&#xb8;" horiz-adv-x="833" 
d="M443 -117q0 -48 -51 -72t-107 -24q-60 0 -60 24q0 16 21 16h18q24 0 52 13t28 36q0 29 -37 29q-20 0 -51 -10l44 105h25l-28 -60q30 7 52 7q94 0 94 -64z" />
    <glyph glyph-name="guillemotright" unicode="&#xbb;" horiz-adv-x="477" 
d="M388 246l-157 -172l-16 9l88 163l-88 163l16 8zM231 246l-160 -172l-16 9l89 163l-89 163l16 8z" />
    <glyph glyph-name="questiondown" unicode="&#xbf;" horiz-adv-x="437" 
d="M25 153q0 41 23 82t50 66.5t66.5 59t53.5 48.5q58 61 58 135h25q0 -102 -37 -162l-15.5 -25.5l-16.5 -27t-14.5 -25t-14.5 -28l-11 -26.5t-10 -29.5t-5.5 -28t-2.5 -30.5q0 -50 22 -94.5t68 -44.5q43 0 79.5 32.5t36.5 64.5q0 10 -10 10q-3 0 -13.5 -2t-14.5 -2
q-24 0 -42.5 17t-18.5 46q0 25 16.5 45.5t49.5 20.5q28 0 49 -25.5t21 -54.5q0 -82 -52.5 -130.5t-134.5 -48.5q-88 0 -146.5 37.5t-58.5 119.5zM224 646q0 26 17.5 45.5t44.5 19.5q26 0 45.5 -18t19.5 -46q0 -26 -18 -45t-45 -19q-26 0 -45 18t-19 45z" />
    <glyph glyph-name="Agrave" unicode="&#xc0;" horiz-adv-x="623" 
d="M668 0h-340v18h20q30 0 47.5 15t17.5 41q0 13 -4 25l-50 171h-215l-49 -163q-7 -23 -7 -40q0 -49 52 -49h19v-18h-194v18h9q39 0 59 20.5t34 68.5l192 643h102l192 -643q15 -47 34 -67.5t63 -21.5h18v-18zM351 296l-101 330l-99 -330h200zM401 808l-215 181h128l123 -181
h-36z" />
    <glyph glyph-name="Aacute" unicode="&#xc1;" horiz-adv-x="623" 
d="M668 0h-340v18h20q30 0 47.5 15t17.5 41q0 13 -4 25l-50 171h-215l-49 -163q-7 -23 -7 -40q0 -49 52 -49h19v-18h-194v18h9q39 0 59 20.5t34 68.5l192 643h102l192 -643q15 -47 34 -67.5t63 -21.5h18v-18zM351 296l-101 330l-99 -330h200zM437 988l-205 -180h-26l110 180
h121z" />
    <glyph glyph-name="Acircumflex" unicode="&#xc2;" horiz-adv-x="623" 
d="M668 0h-340v18h20q30 0 47.5 15t17.5 41q0 13 -4 25l-50 171h-215l-49 -163q-7 -23 -7 -40q0 -49 52 -49h19v-18h-194v18h9q39 0 59 20.5t34 68.5l192 643h102l192 -643q15 -47 34 -67.5t63 -21.5h18v-18zM351 296l-101 330l-99 -330h200zM478 808h-29l-135 109
l-137 -109h-32l129 176h89z" />
    <glyph glyph-name="Atilde" unicode="&#xc3;" horiz-adv-x="623" 
d="M668 0h-340v18h20q30 0 47.5 15t17.5 41q0 13 -4 25l-50 171h-215l-49 -163q-7 -23 -7 -40q0 -49 52 -49h19v-18h-194v18h9q39 0 59 20.5t34 68.5l192 643h102l192 -643q15 -47 34 -67.5t63 -21.5h18v-18zM351 296l-101 330l-99 -330h200zM461 948h23q-29 -122 -121 -122
q-29 0 -73 24t-74 24q-16 0 -34 -16.5t-21 -34.5h-22q7 52 37.5 86.5t80.5 34.5q29 0 71 -24.5t71 -24.5q41 0 62 53z" />
    <glyph glyph-name="Adieresis" unicode="&#xc4;" horiz-adv-x="623" 
d="M668 0h-340v18h20q30 0 47.5 15t17.5 41q0 13 -4 25l-50 171h-215l-49 -163q-7 -23 -7 -40q0 -49 52 -49h19v-18h-194v18h9q39 0 59 20.5t34 68.5l192 643h102l192 -643q15 -47 34 -67.5t63 -21.5h18v-18zM351 296l-101 330l-99 -330h200zM272 886q0 -26 -17.5 -45.5
t-44.5 -19.5q-26 0 -45.5 18t-19.5 46q0 26 18 45t45 19q26 0 45 -18t19 -45zM478 886q0 -26 -17.5 -45.5t-44.5 -19.5q-26 0 -45.5 18t-19.5 46q0 26 18 45t45 19q26 0 45 -18t19 -45z" />
    <glyph glyph-name="Aring" unicode="&#xc5;" horiz-adv-x="623" 
d="M668 0h-340v18h20q30 0 47.5 15t17.5 41q0 13 -4 25l-50 171h-215l-49 -163q-7 -23 -7 -40q0 -49 52 -49h19v-18h-194v18h9q39 0 59 20.5t34 68.5l192 643h102l192 -643q15 -47 34 -67.5t63 -21.5h18v-18zM351 296l-101 330l-99 -330h200zM311 796q-44 0 -75 31.5
t-31 75.5q0 43 31.5 74.5t74.5 31.5q44 0 75.5 -31t31.5 -75q0 -45 -31.5 -76t-75.5 -31zM311 960q-23 0 -40.5 -17t-17.5 -40t17.5 -40.5t40.5 -17.5t41 17.5t18 40.5t-18 40t-41 17z" />
    <glyph glyph-name="AE" unicode="&#xc6;" horiz-adv-x="953" 
d="M893 0h-563v18h12q52 0 71.5 20.5t19.5 73.5v265h-147l-164 -270q-13 -22 -19 -40q-11 -49 38 -49h19v-18h-195v18h9q39 0 65 20.5t54 68.5l338 563q-5 33 -25.5 47.5t-63.5 14.5h-9v18h551v-222h-26v37q0 61 -41 111t-101 50h-143v-323h29q75 0 100 26.5t25 104.5v33h26
v-361h-26v38q0 76 -25.5 104.5t-100.5 28.5h-28v-351h154q70 0 105 59t35 136v37h26v-258zM435 403v223l-134 -223h134z" />
    <glyph glyph-name="Ccedilla" unicode="&#xc7;" horiz-adv-x="678" 
d="M618 273q-2 -124 -63.5 -204.5t-183.5 -80.5q-75 0 -133 21.5t-94 56.5t-59 85t-32 102t-9 112t8.5 113t31 106.5t57.5 91.5t94 62t135 24q58 0 116 -31q8 -4 20 -11t19.5 -11t17 -7.5t17.5 -3.5q14 0 25 14t12 38h18v-293h-26q0 63 -24 125.5t-74.5 108t-115.5 45.5
q-37 0 -66 -13t-48 -31t-32 -51t-19 -58.5t-9.5 -69.5t-4 -68.5t-0.5 -69.5v-10q0 -152 13 -211q32 -140 162 -140q110 0 165 72.5t56 186.5h26zM488 -117q0 -48 -51 -72t-107 -24q-60 0 -60 24q0 16 21 16h18q24 0 52 13t28 36q0 29 -37 29q-20 0 -51 -10l44 105h25
l-28 -60q30 7 52 7q94 0 94 -64z" />
    <glyph glyph-name="Egrave" unicode="&#xc8;" horiz-adv-x="639" 
d="M579 0h-563v18h12q52 0 71.5 20.5t19.5 73.5v526q0 52 -19 73t-72 21h-9v18h551v-222h-26v37q0 61 -41 111t-101 50h-143v-323h29q75 0 100 26.5t25 104.5v33h26v-361h-26v38q0 76 -25.5 104.5t-100.5 28.5h-28v-351h154q70 0 105 59t35 136v37h26v-258zM409 808
l-215 181h128l123 -181h-36z" />
    <glyph glyph-name="Eacute" unicode="&#xc9;" horiz-adv-x="639" 
d="M579 0h-563v18h12q52 0 71.5 20.5t19.5 73.5v526q0 52 -19 73t-72 21h-9v18h551v-222h-26v37q0 61 -41 111t-101 50h-143v-323h29q75 0 100 26.5t25 104.5v33h26v-361h-26v38q0 76 -25.5 104.5t-100.5 28.5h-28v-351h154q70 0 105 59t35 136v37h26v-258zM445 988
l-205 -180h-26l110 180h121z" />
    <glyph glyph-name="Ecircumflex" unicode="&#xca;" horiz-adv-x="639" 
d="M579 0h-563v18h12q52 0 71.5 20.5t19.5 73.5v526q0 52 -19 73t-72 21h-9v18h551v-222h-26v37q0 61 -41 111t-101 50h-143v-323h29q75 0 100 26.5t25 104.5v33h26v-361h-26v38q0 76 -25.5 104.5t-100.5 28.5h-28v-351h154q70 0 105 59t35 136v37h26v-258zM486 808h-29
l-135 109l-137 -109h-32l129 176h89z" />
    <glyph glyph-name="Edieresis" unicode="&#xcb;" horiz-adv-x="639" 
d="M579 0h-563v18h12q52 0 71.5 20.5t19.5 73.5v526q0 52 -19 73t-72 21h-9v18h551v-222h-26v37q0 61 -41 111t-101 50h-143v-323h29q75 0 100 26.5t25 104.5v33h26v-361h-26v38q0 76 -25.5 104.5t-100.5 28.5h-28v-351h154q70 0 105 59t35 136v37h26v-258zM280 886
q0 -26 -17.5 -45.5t-44.5 -19.5q-26 0 -45.5 18t-19.5 46q0 26 18 45t45 19q26 0 45 -18t19 -45zM486 886q0 -26 -17.5 -45.5t-44.5 -19.5q-26 0 -45.5 18t-19.5 46q0 26 18 45t45 19q26 0 45 -18t19 -45z" />
    <glyph glyph-name="Igrave" unicode="&#xcc;" horiz-adv-x="374" 
d="M358 0h-342v18h32q69 0 69 95v524q0 95 -69 95h-32v18h342v-18h-32q-69 0 -69 -95v-524q0 -95 69 -95h32v-18zM277 808l-215 181h128l123 -181h-36z" />
    <glyph glyph-name="Iacute" unicode="&#xcd;" horiz-adv-x="374" 
d="M358 0h-342v18h32q69 0 69 95v524q0 95 -69 95h-32v18h342v-18h-32q-69 0 -69 -95v-524q0 -95 69 -95h32v-18zM313 988l-205 -180h-26l110 180h121z" />
    <glyph glyph-name="Icircumflex" unicode="&#xce;" horiz-adv-x="374" 
d="M358 0h-342v18h32q69 0 69 95v524q0 95 -69 95h-32v18h342v-18h-32q-69 0 -69 -95v-524q0 -95 69 -95h32v-18zM354 808h-29l-135 109l-137 -109h-32l129 176h89z" />
    <glyph glyph-name="Idieresis" unicode="&#xcf;" horiz-adv-x="374" 
d="M358 0h-342v18h32q69 0 69 95v524q0 95 -69 95h-32v18h342v-18h-32q-69 0 -69 -95v-524q0 -95 69 -95h32v-18zM148 886q0 -26 -17.5 -45.5t-44.5 -19.5q-26 0 -45.5 18t-19.5 46q0 26 18 45t45 19q26 0 45 -18t19 -45zM354 886q0 -26 -17.5 -45.5t-44.5 -19.5
q-26 0 -45.5 18t-19.5 46q0 26 18 45t45 19q26 0 45 -18t19 -45z" />
    <glyph glyph-name="Ntilde" unicode="&#xd1;" horiz-adv-x="731" 
d="M715 732h-31q-70 0 -70 -95q0 -106 -0.5 -318.5t-0.5 -318.5h-44l-423 632l-1 -519q0 -95 69 -95h32v-18h-229v18h32q70 0 70 95v511q0 45 -21 76.5t-63 31.5h-19v18h221l351 -526v411q0 51 -17 74t-53 23h-33v18h230v-18zM515 948h23q-29 -122 -121 -122q-29 0 -73 24
t-74 24q-16 0 -34 -16.5t-21 -34.5h-22q7 52 37.5 86.5t80.5 34.5q29 0 71 -24.5t71 -24.5q41 0 62 53z" />
    <glyph glyph-name="Ograve" unicode="&#xd2;" 
d="M696 374q0 -172 -83.5 -279t-242.5 -107q-160 0 -243 107.5t-83 279.5t83 279.5t243 107.5q161 0 243.5 -107.5t82.5 -280.5zM541 374q0 46 -0.5 68t-3.5 67.5t-9 70.5t-18.5 59.5t-30 52t-45.5 31t-64 13.5q-28 0 -51 -8t-39.5 -19.5t-29.5 -32.5t-21.5 -39t-14.5 -48
t-9 -50t-4.5 -54.5t-1.5 -52.5v-52v-5v-5v-52t1.5 -52.5t4.5 -54.5t9 -50t14.5 -48t21.5 -39t29.5 -32.5t39.5 -19.5t51 -8t51.5 8t40 19.5t29.5 33.5t21.5 39.5t14 49t8.5 50.5t4.5 55.5t1.5 52.5v52zM459 808l-215 181h128l123 -181h-36z" />
    <glyph glyph-name="Oacute" unicode="&#xd3;" 
d="M696 374q0 -172 -83.5 -279t-242.5 -107q-160 0 -243 107.5t-83 279.5t83 279.5t243 107.5q161 0 243.5 -107.5t82.5 -280.5zM541 374q0 46 -0.5 68t-3.5 67.5t-9 70.5t-18.5 59.5t-30 52t-45.5 31t-64 13.5q-28 0 -51 -8t-39.5 -19.5t-29.5 -32.5t-21.5 -39t-14.5 -48
t-9 -50t-4.5 -54.5t-1.5 -52.5v-52v-5v-5v-52t1.5 -52.5t4.5 -54.5t9 -50t14.5 -48t21.5 -39t29.5 -32.5t39.5 -19.5t51 -8t51.5 8t40 19.5t29.5 33.5t21.5 39.5t14 49t8.5 50.5t4.5 55.5t1.5 52.5v52zM495 988l-205 -180h-26l110 180h121z" />
    <glyph glyph-name="Ocircumflex" unicode="&#xd4;" 
d="M696 374q0 -172 -83.5 -279t-242.5 -107q-160 0 -243 107.5t-83 279.5t83 279.5t243 107.5q161 0 243.5 -107.5t82.5 -280.5zM541 374q0 46 -0.5 68t-3.5 67.5t-9 70.5t-18.5 59.5t-30 52t-45.5 31t-64 13.5q-28 0 -51 -8t-39.5 -19.5t-29.5 -32.5t-21.5 -39t-14.5 -48
t-9 -50t-4.5 -54.5t-1.5 -52.5v-52v-5v-5v-52t1.5 -52.5t4.5 -54.5t9 -50t14.5 -48t21.5 -39t29.5 -32.5t39.5 -19.5t51 -8t51.5 8t40 19.5t29.5 33.5t21.5 39.5t14 49t8.5 50.5t4.5 55.5t1.5 52.5v52zM536 808h-29l-135 109l-137 -109h-32l129 176h89z" />
    <glyph glyph-name="Otilde" unicode="&#xd5;" 
d="M696 374q0 -172 -83.5 -279t-242.5 -107q-160 0 -243 107.5t-83 279.5t83 279.5t243 107.5q161 0 243.5 -107.5t82.5 -280.5zM541 374q0 46 -0.5 68t-3.5 67.5t-9 70.5t-18.5 59.5t-30 52t-45.5 31t-64 13.5q-28 0 -51 -8t-39.5 -19.5t-29.5 -32.5t-21.5 -39t-14.5 -48
t-9 -50t-4.5 -54.5t-1.5 -52.5v-52v-5v-5v-52t1.5 -52.5t4.5 -54.5t9 -50t14.5 -48t21.5 -39t29.5 -32.5t39.5 -19.5t51 -8t51.5 8t40 19.5t29.5 33.5t21.5 39.5t14 49t8.5 50.5t4.5 55.5t1.5 52.5v52zM519 948h23q-29 -122 -121 -122q-29 0 -73 24t-74 24q-16 0 -34 -16.5
t-21 -34.5h-22q7 52 37.5 86.5t80.5 34.5q29 0 71 -24.5t71 -24.5q41 0 62 53z" />
    <glyph glyph-name="Odieresis" unicode="&#xd6;" 
d="M696 374q0 -172 -83.5 -279t-242.5 -107q-160 0 -243 107.5t-83 279.5t83 279.5t243 107.5q161 0 243.5 -107.5t82.5 -280.5zM541 374q0 46 -0.5 68t-3.5 67.5t-9 70.5t-18.5 59.5t-30 52t-45.5 31t-64 13.5q-28 0 -51 -8t-39.5 -19.5t-29.5 -32.5t-21.5 -39t-14.5 -48
t-9 -50t-4.5 -54.5t-1.5 -52.5v-52v-5v-5v-52t1.5 -52.5t4.5 -54.5t9 -50t14.5 -48t21.5 -39t29.5 -32.5t39.5 -19.5t51 -8t51.5 8t40 19.5t29.5 33.5t21.5 39.5t14 49t8.5 50.5t4.5 55.5t1.5 52.5v52zM330 886q0 -26 -17.5 -45.5t-44.5 -19.5q-26 0 -45.5 18t-19.5 46
q0 26 18 45t45 19q26 0 45 -18t19 -45zM536 886q0 -26 -17.5 -45.5t-44.5 -19.5q-26 0 -45.5 18t-19.5 46q0 26 18 45t45 19q26 0 45 -18t19 -45z" />
    <glyph glyph-name="multiply" unicode="&#xd7;" horiz-adv-x="502" 
d="M64 482l26 26l159 -159l164 164l27 -28l-164 -163l159 -159l-26 -26l-159 159l-160 -162l-27 29l160 160z" />
    <glyph glyph-name="Ugrave" unicode="&#xd9;" 
d="M713 732h-32q-36 0 -52.5 -22.5t-16.5 -72.5v-416q0 -233 -225 -233q-118 0 -187 57.5t-69 175.5l-1 417q0 52 -19 73t-72 21h-9v18h325v-18h-13q-37 0 -54.5 -22.5t-17.5 -71.5v-434q0 -85 33.5 -138.5t110.5 -53.5q81 0 126.5 53.5t45.5 137.5v432q0 51 -17.5 74
t-53.5 23h-31v18h229v-18zM459 808l-215 181h128l123 -181h-36z" />
    <glyph glyph-name="Uacute" unicode="&#xda;" 
d="M713 732h-32q-36 0 -52.5 -22.5t-16.5 -72.5v-416q0 -233 -225 -233q-118 0 -187 57.5t-69 175.5l-1 417q0 52 -19 73t-72 21h-9v18h325v-18h-13q-37 0 -54.5 -22.5t-17.5 -71.5v-434q0 -85 33.5 -138.5t110.5 -53.5q81 0 126.5 53.5t45.5 137.5v432q0 51 -17.5 74
t-53.5 23h-31v18h229v-18zM495 988l-205 -180h-26l110 180h121z" />
    <glyph glyph-name="Ucircumflex" unicode="&#xdb;" 
d="M713 732h-32q-36 0 -52.5 -22.5t-16.5 -72.5v-416q0 -233 -225 -233q-118 0 -187 57.5t-69 175.5l-1 417q0 52 -19 73t-72 21h-9v18h325v-18h-13q-37 0 -54.5 -22.5t-17.5 -71.5v-434q0 -85 33.5 -138.5t110.5 -53.5q81 0 126.5 53.5t45.5 137.5v432q0 51 -17.5 74
t-53.5 23h-31v18h229v-18zM536 808h-29l-135 109l-137 -109h-32l129 176h89z" />
    <glyph glyph-name="Udieresis" unicode="&#xdc;" 
d="M713 732h-32q-36 0 -52.5 -22.5t-16.5 -72.5v-416q0 -233 -225 -233q-118 0 -187 57.5t-69 175.5l-1 417q0 52 -19 73t-72 21h-9v18h325v-18h-13q-37 0 -54.5 -22.5t-17.5 -71.5v-434q0 -85 33.5 -138.5t110.5 -53.5q81 0 126.5 53.5t45.5 137.5v432q0 51 -17.5 74
t-53.5 23h-31v18h229v-18zM330 886q0 -26 -17.5 -45.5t-44.5 -19.5q-26 0 -45.5 18t-19.5 46q0 26 18 45t45 19q26 0 45 -18t19 -45zM536 886q0 -26 -17.5 -45.5t-44.5 -19.5q-26 0 -45.5 18t-19.5 46q0 26 18 45t45 19q26 0 45 -18t19 -45z" />
    <glyph glyph-name="Yacute" unicode="&#xdd;" horiz-adv-x="612" 
d="M280 732q-26 0 -39.5 -13.5t-13.5 -35.5q0 -21 12 -41l126 -243l138 260q9 17 9 33q0 18 -11 29t-32 11h-19v18h173v-18h-19q-25 0 -40 -13.5t-30 -43.5l-156 -295l1 -267q0 -95 69 -95h31v-18h-341v18h31q70 0 70 95v221l-166 333q-33 65 -88 65h-28v18h357v-18h-34z
M548 988l-205 -180h-26l110 180h121z" />
    <glyph glyph-name="germandbls" unicode="&#xdf;" horiz-adv-x="619" 
d="M462 112q0 34 -23 70t-55 65.5l-64 57t-54 54t-20 46.5q1 11 7.5 17.5t22.5 13.5t21 10q82 49 82 155q0 51 -21 95t-64 44q-19 0 -33 -5.5t-22.5 -20t-13.5 -27t-7 -39.5t-2.5 -44.5t-0.5 -53.5v-472q0 -34 12 -47t45 -13h-1v-18h-252v18h9q31 0 44 13.5t13 46.5v455
q0 118 57 173.5t158 55.5q226 0 226 -155q0 -33 -13.5 -60t-32.5 -43t-38.5 -28.5t-33 -22.5t-13.5 -18q0 -20 83 -94q30 -27 44.5 -42t33 -38.5t26 -48t7.5 -52.5q0 -66 -52.5 -117.5t-141.5 -51.5q-54 0 -90.5 35t-36.5 86q0 28 18.5 46.5t42.5 18.5q25 0 39.5 -16
t14.5 -41q0 -17 -7 -28.5t-17 -17t-20 -8.5t-17 -3.5t-7 -1.5q1 -7 8.5 -17t27 -20.5t44.5 -10.5q31 0 49 31t18 68z" />
    <glyph glyph-name="agrave" unicode="&#xe0;" horiz-adv-x="519" 
d="M505 143v-62q0 -42 -27 -65t-81 -23q-39 0 -69.5 23.5t-35.5 61.5q-46 -85 -143 -85q-52 0 -85.5 26t-33.5 81q0 66 47 109.5t123 62.5l92 23v74q0 66 -10 86q-15 32 -60 32q-54 0 -85 -21q-4 -3 -4 -5q0 -3 3 -3q17 -4 30 -19t13 -36q0 -25 -18 -44t-44 -19
q-23 0 -39 16t-16 40q0 54 50.5 83.5t109.5 29.5q35 0 65 -5.5t63 -20t52.5 -46.5t19.5 -79v-287q0 -43 27 -43q17 0 25.5 16t8.5 37v62h22zM293 126l-1 147q-70 -18 -96 -42q-34 -31 -34 -118q0 -29 17 -47.5t41 -18.5q44 0 73 79zM324 558l-215 181h128l123 -181h-36z" />
    <glyph glyph-name="aacute" unicode="&#xe1;" horiz-adv-x="519" 
d="M505 143v-62q0 -42 -27 -65t-81 -23q-39 0 -69.5 23.5t-35.5 61.5q-46 -85 -143 -85q-52 0 -85.5 26t-33.5 81q0 66 47 109.5t123 62.5l92 23v74q0 66 -10 86q-15 32 -60 32q-54 0 -85 -21q-4 -3 -4 -5q0 -3 3 -3q17 -4 30 -19t13 -36q0 -25 -18 -44t-44 -19
q-23 0 -39 16t-16 40q0 54 50.5 83.5t109.5 29.5q35 0 65 -5.5t63 -20t52.5 -46.5t19.5 -79v-287q0 -43 27 -43q17 0 25.5 16t8.5 37v62h22zM293 126l-1 147q-70 -18 -96 -42q-34 -31 -34 -118q0 -29 17 -47.5t41 -18.5q44 0 73 79zM432 738l-205 -180h-26l110 180h121z" />
    <glyph glyph-name="acircumflex" unicode="&#xe2;" horiz-adv-x="519" 
d="M505 143v-62q0 -42 -27 -65t-81 -23q-39 0 -69.5 23.5t-35.5 61.5q-46 -85 -143 -85q-52 0 -85.5 26t-33.5 81q0 66 47 109.5t123 62.5l92 23v74q0 66 -10 86q-15 32 -60 32q-54 0 -85 -21q-4 -3 -4 -5q0 -3 3 -3q17 -4 30 -19t13 -36q0 -25 -18 -44t-44 -19
q-23 0 -39 16t-16 40q0 54 50.5 83.5t109.5 29.5q35 0 65 -5.5t63 -20t52.5 -46.5t19.5 -79v-287q0 -43 27 -43q17 0 25.5 16t8.5 37v62h22zM293 126l-1 147q-70 -18 -96 -42q-34 -31 -34 -118q0 -29 17 -47.5t41 -18.5q44 0 73 79zM426 558h-29l-135 109l-137 -109h-32
l129 176h89z" />
    <glyph glyph-name="atilde" unicode="&#xe3;" horiz-adv-x="519" 
d="M505 143v-62q0 -42 -27 -65t-81 -23q-39 0 -69.5 23.5t-35.5 61.5q-46 -85 -143 -85q-52 0 -85.5 26t-33.5 81q0 66 47 109.5t123 62.5l92 23v74q0 66 -10 86q-15 32 -60 32q-54 0 -85 -21q-4 -3 -4 -5q0 -3 3 -3q17 -4 30 -19t13 -36q0 -25 -18 -44t-44 -19
q-23 0 -39 16t-16 40q0 54 50.5 83.5t109.5 29.5q35 0 65 -5.5t63 -20t52.5 -46.5t19.5 -79v-287q0 -43 27 -43q17 0 25.5 16t8.5 37v62h22zM293 126l-1 147q-70 -18 -96 -42q-34 -31 -34 -118q0 -29 17 -47.5t41 -18.5q44 0 73 79zM397 698h23q-29 -122 -121 -122
q-29 0 -73 24t-74 24q-16 0 -34 -16.5t-21 -34.5h-22q7 52 37.5 86.5t80.5 34.5q29 0 71 -24.5t71 -24.5q41 0 62 53z" />
    <glyph glyph-name="adieresis" unicode="&#xe4;" horiz-adv-x="519" 
d="M505 143v-62q0 -42 -27 -65t-81 -23q-39 0 -69.5 23.5t-35.5 61.5q-46 -85 -143 -85q-52 0 -85.5 26t-33.5 81q0 66 47 109.5t123 62.5l92 23v74q0 66 -10 86q-15 32 -60 32q-54 0 -85 -21q-4 -3 -4 -5q0 -3 3 -3q17 -4 30 -19t13 -36q0 -25 -18 -44t-44 -19
q-23 0 -39 16t-16 40q0 54 50.5 83.5t109.5 29.5q35 0 65 -5.5t63 -20t52.5 -46.5t19.5 -79v-287q0 -43 27 -43q17 0 25.5 16t8.5 37v62h22zM293 126l-1 147q-70 -18 -96 -42q-34 -31 -34 -118q0 -29 17 -47.5t41 -18.5q44 0 73 79zM205 636q0 -26 -17.5 -45.5t-44.5 -19.5
q-26 0 -45.5 18t-19.5 46q0 26 18 45t45 19q26 0 45 -18t19 -45zM411 636q0 -26 -17.5 -45.5t-44.5 -19.5q-26 0 -45.5 18t-19.5 46q0 26 18 45t45 19q26 0 45 -18t19 -45z" />
    <glyph glyph-name="aring" unicode="&#xe5;" horiz-adv-x="519" 
d="M505 143v-62q0 -42 -27 -65t-81 -23q-39 0 -69.5 23.5t-35.5 61.5q-46 -85 -143 -85q-52 0 -85.5 26t-33.5 81q0 66 47 109.5t123 62.5l92 23v74q0 66 -10 86q-15 32 -60 32q-54 0 -85 -21q-4 -3 -4 -5q0 -3 3 -3q17 -4 30 -19t13 -36q0 -25 -18 -44t-44 -19
q-23 0 -39 16t-16 40q0 54 50.5 83.5t109.5 29.5q35 0 65 -5.5t63 -20t52.5 -46.5t19.5 -79v-287q0 -43 27 -43q17 0 25.5 16t8.5 37v62h22zM293 126l-1 147q-70 -18 -96 -42q-34 -31 -34 -118q0 -29 17 -47.5t41 -18.5q44 0 73 79zM229 546q-44 0 -75 31.5t-31 75.5
q0 43 31.5 74.5t74.5 31.5q44 0 75.5 -31t31.5 -75q0 -45 -31.5 -76t-75.5 -31zM229 710q-23 0 -40.5 -17t-17.5 -40t17.5 -40.5t40.5 -17.5t41 17.5t18 40.5t-18 40t-41 17z" />
    <glyph glyph-name="ae" unicode="&#xe6;" horiz-adv-x="749" 
d="M688 162h22q-7 -82 -57 -126.5t-121 -44.5q-159 0 -222 123q-34 -67 -71 -94t-90 -27q-52 0 -85.5 26t-33.5 81q0 66 47 109.5t123 62.5l92 23v74q0 66 -10 86q-15 32 -60 32q-54 0 -85 -21q-4 -3 -4 -5q0 -3 3 -3q17 -4 30 -19t13 -36q0 -26 -18 -44.5t-44 -18.5
q-23 0 -39 16t-16 40q0 54 50.5 83.5t109.5 29.5q108 0 159 -47q62 47 142 47q94 0 145 -58t51 -169h-297v-81q0 -188 110 -188q63 0 107 39t49 110zM523 487q-54 0 -76.5 -42.5t-24.5 -131.5v-9h177q0 6 1 25.5t0.5 33t-2 34t-6.5 34.5t-13 28t-22.5 21t-33.5 7zM293 126
q0 24 -0.5 73t-0.5 74q-70 -18 -96 -42q-34 -31 -34 -118q0 -29 17 -47.5t41 -18.5q44 0 73 79z" />
    <glyph glyph-name="ccedilla" unicode="&#xe7;" horiz-adv-x="480" 
d="M422 160h22v-5q0 -65 -48.5 -114.5t-113.5 -49.5q-114 0 -178 68t-64 184q0 111 65.5 188.5t176.5 77.5q161 0 161 -142q0 -25 -18 -45.5t-44 -20.5q-25 0 -41.5 14.5t-16.5 44.5q0 26 15.5 44.5t39.5 18.5q11 0 11 10q0 9 -7 16q-38 38 -100 38q-34 0 -56 -22t-31 -63
t-12 -74t-3 -79t1.5 -76t7.5 -63.5t16.5 -52.5t30 -31.5t46.5 -12.5q58 0 99 42.5t41 100.5v4zM384 -117q0 -48 -51 -72t-107 -24q-60 0 -60 24q0 16 21 16h18q24 0 52 13t28 36q0 29 -37 29q-20 0 -51 -10l44 105h25l-28 -60q30 7 52 7q94 0 94 -64z" />
    <glyph glyph-name="egrave" unicode="&#xe8;" horiz-adv-x="507" 
d="M446 162h22q-7 -82 -57 -126.5t-121 -44.5q-117 0 -183.5 69.5t-66.5 189.5q0 103 66.5 181t174.5 78q94 0 145 -58t51 -169h-297v-32q0 -114 14 -159q25 -78 96 -78q63 0 107 39t49 110zM281 487q-56 0 -78 -44.5t-23 -138.5h177q0 6 1 25.5t0.5 33t-2 34t-6.5 34.5
t-13 28t-22.5 21t-33.5 7zM318 558l-215 181h128l123 -181h-36z" />
    <glyph glyph-name="eacute" unicode="&#xe9;" horiz-adv-x="507" 
d="M446 162h22q-7 -82 -57 -126.5t-121 -44.5q-117 0 -183.5 69.5t-66.5 189.5q0 103 66.5 181t174.5 78q94 0 145 -58t51 -169h-297v-32q0 -114 14 -159q25 -78 96 -78q63 0 107 39t49 110zM281 487q-56 0 -78 -44.5t-23 -138.5h177q0 6 1 25.5t0.5 33t-2 34t-6.5 34.5
t-13 28t-22.5 21t-33.5 7zM429 738l-205 -180h-26l110 180h121z" />
    <glyph glyph-name="ecircumflex" unicode="&#xea;" horiz-adv-x="507" 
d="M446 162h22q-7 -82 -57 -126.5t-121 -44.5q-117 0 -183.5 69.5t-66.5 189.5q0 103 66.5 181t174.5 78q94 0 145 -58t51 -169h-297v-32q0 -114 14 -159q25 -78 96 -78q63 0 107 39t49 110zM281 487q-56 0 -78 -44.5t-23 -138.5h177q0 6 1 25.5t0.5 33t-2 34t-6.5 34.5
t-13 28t-22.5 21t-33.5 7zM440 558h-29l-135 109l-137 -109h-32l129 176h89z" />
    <glyph glyph-name="edieresis" unicode="&#xeb;" horiz-adv-x="507" 
d="M446 162h22q-7 -82 -57 -126.5t-121 -44.5q-117 0 -183.5 69.5t-66.5 189.5q0 103 66.5 181t174.5 78q94 0 145 -58t51 -169h-297v-32q0 -114 14 -159q25 -78 96 -78q63 0 107 39t49 110zM281 487q-56 0 -78 -44.5t-23 -138.5h177q0 6 1 25.5t0.5 33t-2 34t-6.5 34.5
t-13 28t-22.5 21t-33.5 7zM224 636q0 -26 -17.5 -45.5t-44.5 -19.5q-26 0 -45.5 18t-19.5 46q0 26 18 45t45 19q26 0 45 -18t19 -45zM430 636q0 -26 -17.5 -45.5t-44.5 -19.5q-26 0 -45.5 18t-19.5 46q0 26 18 45t45 19q26 0 45 -18t19 -45z" />
    <glyph glyph-name="igrave" unicode="&#xec;" horiz-adv-x="303" 
d="M283 0h-263v18h9q31 0 44.5 13.5t13.5 46.5v345q0 59 -50 59h-17v18h197v-422q0 -32 12.5 -46t44.5 -14h9v-18zM221 558l-215 181h128l123 -181h-36z" />
    <glyph glyph-name="iacute" unicode="&#xed;" horiz-adv-x="303" 
d="M283 0h-263v18h9q31 0 44.5 13.5t13.5 46.5v345q0 59 -50 59h-17v18h197v-422q0 -32 12.5 -46t44.5 -14h9v-18zM277 738l-205 -180h-26l110 180h121z" />
    <glyph glyph-name="icircumflex" unicode="&#xee;" horiz-adv-x="303" 
d="M283 0h-263v18h9q31 0 44.5 13.5t13.5 46.5v345q0 59 -50 59h-17v18h197v-422q0 -32 12.5 -46t44.5 -14h9v-18zM293 558h-29l-135 109l-137 -109h-32l129 176h89z" />
    <glyph glyph-name="idieresis" unicode="&#xef;" horiz-adv-x="303" 
d="M283 0h-263v18h9q31 0 44.5 13.5t13.5 46.5v345q0 59 -50 59h-17v18h197v-422q0 -32 12.5 -46t44.5 -14h9v-18zM97 636q0 -26 -17.5 -45.5t-44.5 -19.5q-26 0 -45.5 18t-19.5 46q0 26 18 45t45 19q26 0 45 -18t19 -45zM303 636q0 -26 -17.5 -45.5t-44.5 -19.5
q-26 0 -45.5 18t-19.5 46q0 26 18 45t45 19q26 0 45 -18t19 -45z" />
    <glyph glyph-name="ntilde" unicode="&#xf1;" horiz-adv-x="588" 
d="M574 -1h-246v19h7q43 0 43 54v265q0 77 -14.5 110.5t-60.5 33.5q-20 0 -48 -22t-39 -58v-329q0 -36 9.5 -44.5t47.5 -9.5h4v-18h-257v18h9q37 1 47 10t10 44v351q0 59 -49 59h-17v18h196v-54q45 63 126 63q69 0 117.5 -41t48.5 -129v-267q0 -36 9 -44.5t45 -9.5h12v-19z
M444 698h23q-29 -122 -121 -122q-29 0 -73 24t-74 24q-16 0 -34 -16.5t-21 -34.5h-22q7 52 37.5 86.5t80.5 34.5q29 0 71 -24.5t71 -24.5q41 0 62 53z" />
    <glyph glyph-name="ograve" unicode="&#xf2;" horiz-adv-x="564" 
d="M524 256q0 -119 -68 -192t-174 -73t-174 73t-68 192q0 118 66 185.5t176 67.5q107 0 174.5 -67.5t67.5 -185.5zM384 256v29.5t-1 33.5t-3.5 39.5l-7 37t-12 36.5t-18 27.5t-26 21t-34.5 6.5t-34.5 -6.5t-26 -21t-18 -27.5t-12 -36.5l-7 -37t-3.5 -39.5t-1 -33.5v-29.5
v-29.5t1 -35t3.5 -41.5l7 -39t12 -39t18 -29.5t26 -22.5t34.5 -7t34.5 7t26 22.5t18 29.5t12 39l7 39t3.5 41.5t1 35v29.5zM351 558l-215 181h128l123 -181h-36z" />
    <glyph glyph-name="oacute" unicode="&#xf3;" horiz-adv-x="564" 
d="M524 256q0 -119 -68 -192t-174 -73t-174 73t-68 192q0 118 66 185.5t176 67.5q107 0 174.5 -67.5t67.5 -185.5zM384 256v29.5t-1 33.5t-3.5 39.5l-7 37t-12 36.5t-18 27.5t-26 21t-34.5 6.5t-34.5 -6.5t-26 -21t-18 -27.5t-12 -36.5l-7 -37t-3.5 -39.5t-1 -33.5v-29.5
v-29.5t1 -35t3.5 -41.5l7 -39t12 -39t18 -29.5t26 -22.5t34.5 -7t34.5 7t26 22.5t18 29.5t12 39l7 39t3.5 41.5t1 35v29.5zM420 738l-205 -180h-26l110 180h121z" />
    <glyph glyph-name="ocircumflex" unicode="&#xf4;" horiz-adv-x="564" 
d="M524 256q0 -119 -68 -192t-174 -73t-174 73t-68 192q0 118 66 185.5t176 67.5q107 0 174.5 -67.5t67.5 -185.5zM384 256v29.5t-1 33.5t-3.5 39.5l-7 37t-12 36.5t-18 27.5t-26 21t-34.5 6.5t-34.5 -6.5t-26 -21t-18 -27.5t-12 -36.5l-7 -37t-3.5 -39.5t-1 -33.5v-29.5
v-29.5t1 -35t3.5 -41.5l7 -39t12 -39t18 -29.5t26 -22.5t34.5 -7t34.5 7t26 22.5t18 29.5t12 39l7 39t3.5 41.5t1 35v29.5zM448 558h-29l-135 109l-137 -109h-32l129 176h89z" />
    <glyph glyph-name="otilde" unicode="&#xf5;" horiz-adv-x="564" 
d="M524 256q0 -119 -68 -192t-174 -73t-174 73t-68 192q0 118 66 185.5t176 67.5q107 0 174.5 -67.5t67.5 -185.5zM384 256v29.5t-1 33.5t-3.5 39.5l-7 37t-12 36.5t-18 27.5t-26 21t-34.5 6.5t-34.5 -6.5t-26 -21t-18 -27.5t-12 -36.5l-7 -37t-3.5 -39.5t-1 -33.5v-29.5
v-29.5t1 -35t3.5 -41.5l7 -39t12 -39t18 -29.5t26 -22.5t34.5 -7t34.5 7t26 22.5t18 29.5t12 39l7 39t3.5 41.5t1 35v29.5zM432 698h23q-29 -122 -121 -122q-29 0 -73 24t-74 24q-16 0 -34 -16.5t-21 -34.5h-22q7 52 37.5 86.5t80.5 34.5q29 0 71 -24.5t71 -24.5q41 0 62 53
z" />
    <glyph glyph-name="odieresis" unicode="&#xf6;" horiz-adv-x="564" 
d="M524 256q0 -119 -68 -192t-174 -73t-174 73t-68 192q0 118 66 185.5t176 67.5q107 0 174.5 -67.5t67.5 -185.5zM384 256v29.5t-1 33.5t-3.5 39.5l-7 37t-12 36.5t-18 27.5t-26 21t-34.5 6.5t-34.5 -6.5t-26 -21t-18 -27.5t-12 -36.5l-7 -37t-3.5 -39.5t-1 -33.5v-29.5
v-29.5t1 -35t3.5 -41.5l7 -39t12 -39t18 -29.5t26 -22.5t34.5 -7t34.5 7t26 22.5t18 29.5t12 39l7 39t3.5 41.5t1 35v29.5zM242 636q0 -26 -17.5 -45.5t-44.5 -19.5q-26 0 -45.5 18t-19.5 46q0 26 18 45t45 19q26 0 45 -18t19 -45zM448 636q0 -26 -17.5 -45.5t-44.5 -19.5
q-26 0 -45.5 18t-19.5 46q0 26 18 45t45 19q26 0 45 -18t19 -45z" />
    <glyph glyph-name="divide" unicode="&#xf7;" horiz-adv-x="608" 
d="M366 508q0 -26 -17.5 -45.5t-44.5 -19.5q-26 0 -45.5 18t-19.5 46q0 26 18 45t45 19q26 0 45 -18t19 -45zM366 141q0 -26 -17.5 -45.5t-44.5 -19.5q-26 0 -45.5 18t-19.5 46q0 26 18 45t45 19q26 0 45 -18t19 -45zM548 309h-488v33h488v-33z" />
    <glyph glyph-name="ugrave" unicode="&#xf9;" horiz-adv-x="595" 
d="M575 0h-196v53q-38 -62 -106 -62q-81 0 -133.5 42t-52.5 138v252q0 37 -10.5 48.5t-44.5 11.5h-12v17h197v-337q0 -40 2 -63t8.5 -45t21.5 -31.5t39 -9.5q35 0 59 27t32 67v315q0 37 -11.5 48.5t-45.5 11.5h-9v17h196v-423q0 -59 50 -59h16v-18zM337 558l-215 181h128
l123 -181h-36z" />
    <glyph glyph-name="uacute" unicode="&#xfa;" horiz-adv-x="595" 
d="M575 0h-196v53q-38 -62 -106 -62q-81 0 -133.5 42t-52.5 138v252q0 37 -10.5 48.5t-44.5 11.5h-12v17h197v-337q0 -40 2 -63t8.5 -45t21.5 -31.5t39 -9.5q35 0 59 27t32 67v315q0 37 -11.5 48.5t-45.5 11.5h-9v17h196v-423q0 -59 50 -59h16v-18zM473 738l-205 -180h-26
l110 180h121z" />
    <glyph glyph-name="ucircumflex" unicode="&#xfb;" horiz-adv-x="595" 
d="M575 0h-196v53q-38 -62 -106 -62q-81 0 -133.5 42t-52.5 138v252q0 37 -10.5 48.5t-44.5 11.5h-12v17h197v-337q0 -40 2 -63t8.5 -45t21.5 -31.5t39 -9.5q35 0 59 27t32 67v315q0 37 -11.5 48.5t-45.5 11.5h-9v17h196v-423q0 -59 50 -59h16v-18zM454 558h-29l-135 109
l-137 -109h-32l129 176h89z" />
    <glyph glyph-name="udieresis" unicode="&#xfc;" horiz-adv-x="595" 
d="M575 0h-196v53q-38 -62 -106 -62q-81 0 -133.5 42t-52.5 138v252q0 37 -10.5 48.5t-44.5 11.5h-12v17h197v-337q0 -40 2 -63t8.5 -45t21.5 -31.5t39 -9.5q35 0 59 27t32 67v315q0 37 -11.5 48.5t-45.5 11.5h-9v17h196v-423q0 -59 50 -59h16v-18zM258 636
q0 -26 -17.5 -45.5t-44.5 -19.5q-26 0 -45.5 18t-19.5 46q0 26 18 45t45 19q26 0 45 -18t19 -45zM464 636q0 -26 -17.5 -45.5t-44.5 -19.5q-26 0 -45.5 18t-19.5 46q0 26 18 45t45 19q26 0 45 -18t19 -45z" />
    <glyph glyph-name="yacute" unicode="&#xfd;" horiz-adv-x="482" 
d="M518 482h-24q-52 0 -74 -69l-178 -525q-43 -126 -143 -126q-33 0 -61 21t-28 55q0 28 16.5 48.5t47.5 20.5q26 0 42 -17.5t16 -43.5q0 -21 -10 -34t-20 -18t-10 -7q0 -4 15 -4q37 0 67 29.5t47 83.5l6 19l-176 516q-17 51 -64 51h-17v18h276v-18h-26q-31 0 -31 -34
q0 -19 8 -43l97 -296l104 308q4 11 4 22q0 19 -12 31t-36 12h-25v18h189v-18zM438 738l-205 -180h-26l110 180h121z" />
    <glyph glyph-name="ydieresis" unicode="&#xff;" horiz-adv-x="482" 
d="M518 482h-24q-52 0 -74 -69l-178 -525q-43 -126 -143 -126q-33 0 -61 21t-28 55q0 28 16.5 48.5t47.5 20.5q26 0 42 -17.5t16 -43.5q0 -21 -10 -34t-20 -18t-10 -7q0 -4 15 -4q37 0 67 29.5t47 83.5l6 19l-176 516q-17 51 -64 51h-17v18h276v-18h-26q-31 0 -31 -34
q0 -19 8 -43l97 -296l104 308q4 11 4 22q0 19 -12 31t-36 12h-25v18h189v-18zM201 636q0 -26 -17.5 -45.5t-44.5 -19.5q-26 0 -45.5 18t-19.5 46q0 26 18 45t45 19q26 0 45 -18t19 -45zM407 636q0 -26 -17.5 -45.5t-44.5 -19.5q-26 0 -45.5 18t-19.5 46q0 26 18 45t45 19
q26 0 45 -18t19 -45z" />
    <glyph glyph-name="Cacute" unicode="&#x106;" horiz-adv-x="678" 
d="M618 273q-2 -124 -63.5 -204.5t-183.5 -80.5q-75 0 -133 21.5t-94 56.5t-59 85t-32 102t-9 112t8.5 113t31 106.5t57.5 91.5t94 62t135 24q58 0 116 -31q8 -4 20 -11t19.5 -11t17 -7.5t17.5 -3.5q14 0 25 14t12 38h18v-293h-26q0 63 -24 125.5t-74.5 108t-115.5 45.5
q-37 0 -66 -13t-48 -31t-32 -51t-19 -58.5t-9.5 -69.5t-4 -68.5t-0.5 -69.5v-10q0 -152 13 -211q32 -140 162 -140q110 0 165 72.5t56 186.5h26zM464 988l-205 -180h-26l110 180h121z" />
    <glyph glyph-name="cacute" unicode="&#x107;" horiz-adv-x="480" 
d="M422 160h22v-5q0 -65 -48.5 -114.5t-113.5 -49.5q-114 0 -178 68t-64 184q0 111 65.5 188.5t176.5 77.5q161 0 161 -142q0 -25 -18 -45.5t-44 -20.5q-25 0 -41.5 14.5t-16.5 44.5q0 26 15.5 44.5t39.5 18.5q11 0 11 10q0 9 -7 16q-38 38 -100 38q-34 0 -56 -22t-31 -63
t-12 -74t-3 -79t1.5 -76t7.5 -63.5t16.5 -52.5t30 -31.5t46.5 -12.5q58 0 99 42.5t41 100.5v4zM396 738l-205 -180h-26l110 180h121z" />
    <glyph glyph-name="Ccaron" unicode="&#x10c;" horiz-adv-x="660" 
d="M600 273q-2 -124 -63.5 -204.5t-183.5 -80.5q-75 0 -133 21.5t-94 56.5t-59 85t-32 102t-9 112t8.5 113t31 106.5t57.5 91.5t94 62t135 24q58 0 116 -31q8 -4 20 -11t19.5 -11t17 -7.5t17.5 -3.5q14 0 25 14t12 38h18v-293h-26q0 63 -24 125.5t-74.5 108t-115.5 45.5
q-37 0 -66 -13t-48 -31t-32 -51t-19 -58.5t-9.5 -69.5t-4 -68.5t-0.5 -69.5v-10q0 -152 13 -211q32 -140 162 -140q110 0 165 72.5t56 186.5h26zM172 984h29l135 -109l137 109h32l-129 -176h-89z" />
    <glyph glyph-name="ccaron" unicode="&#x10d;" horiz-adv-x="480" 
d="M422 160h22v-5q0 -65 -48.5 -114.5t-113.5 -49.5q-114 0 -178 68t-64 184q0 111 65.5 188.5t176.5 77.5q161 0 161 -142q0 -25 -18 -45.5t-44 -20.5q-25 0 -41.5 14.5t-16.5 44.5q0 26 15.5 44.5t39.5 18.5q11 0 11 10q0 9 -7 16q-38 38 -100 38q-34 0 -56 -22t-31 -63
t-12 -74t-3 -79t1.5 -76t7.5 -63.5t16.5 -52.5t30 -31.5t46.5 -12.5q58 0 99 42.5t41 100.5v4zM102 734h29l135 -109l137 109h32l-129 -176h-89z" />
    <glyph glyph-name="Dcroat" unicode="&#x110;" horiz-adv-x="749" 
d="M705 375q0 -99 -36.5 -181.5t-114 -136.5t-184.5 -57h-354v18h32q36 0 52.5 22.5t16.5 72.5v264h-101v26h101v234q0 50 -16.5 72.5t-52.5 22.5h-32v18h354q153 -2 244 -110t91 -265zM553 375q0 61 -4 105t-18.5 93t-40.5 79.5t-72 51t-110 20.5h-51v-321h98v-26h-98v-351
h51q64 0 110 20t71.5 50.5t40.5 79.5t19 93.5t4 105.5z" />
    <glyph glyph-name="dcroat" unicode="&#x111;" horiz-adv-x="586" 
d="M579 0h-209l-1 74q-48 -83 -129 -83q-38 0 -71.5 12.5t-65 40t-50 81t-18.5 125.5q0 131 61.5 195t154.5 64q36 0 69.5 -18.5t49.5 -50.5v146h-102v22h102v80q0 46 -56 46h-23v16h209v-142h82v-22h-82v-523q0 -45 57 -45h22v-18zM370 183v128q0 176 -112 176
q-22 0 -38.5 -15.5t-24.5 -37t-13 -56.5t-6 -62.5t-1 -65.5q0 -39 0.5 -63t3 -55t7 -49.5t13 -36t21 -25.5t30.5 -8q53 0 86.5 53t33.5 117z" />
    <glyph glyph-name="OE" unicode="&#x152;" horiz-adv-x="1000" 
d="M940 0h-473q-45 -12 -97 -12q-160 0 -243 107.5t-83 279.5t83 279.5t243 107.5q52 0 96 -12h465v-222h-26v37q0 61 -41 111t-101 50h-143v-323h29q75 0 100 26.5t25 104.5v33h26v-361h-26v38q0 76 -25.5 104.5t-100.5 28.5h-28v-351h154q70 0 105 59t35 136v37h26v-258z
M370 14q59 0 98 34q12 24 12 64v526q0 40 -11 62q-39 36 -99 36q-28 0 -51 -8t-39.5 -19.5t-29.5 -32.5t-21.5 -39t-14.5 -48t-9 -50t-4.5 -54.5t-1.5 -52.5v-52v-5v-5v-52t1.5 -52.5t4.5 -54.5t9 -50t14.5 -48t21.5 -39t29.5 -32.5t39.5 -19.5t51 -8z" />
    <glyph glyph-name="oe" unicode="&#x153;" horiz-adv-x="854" 
d="M793 162h22q-7 -82 -57 -126.5t-121 -44.5q-118 0 -184 69q-67 -69 -171 -69q-106 0 -174 73t-68 192q0 118 66 185.5t176 67.5q112 0 178 -71q68 71 168 71q94 0 145 -58t51 -169h-297v-32q0 -114 14 -159q25 -78 96 -78q63 0 107 39t49 110zM384 256v29.5t-1 33.5
t-3.5 39.5l-7 37t-12 36.5t-18 27.5t-26 21t-34.5 6.5t-34.5 -6.5t-26 -21t-18 -27.5t-12 -36.5l-7 -37t-3.5 -39.5t-1 -33.5v-29.5v-29.5t1 -35t3.5 -41.5l7 -39t12 -39t18 -29.5t26 -22.5t34.5 -7t34.5 7t26 22.5t18 29.5t12 39l7 39t3.5 41.5t1 35v29.5zM628 487
q-56 0 -78 -44.5t-23 -138.5h177q0 6 1 25.5t0.5 33t-2 34t-6.5 34.5t-13 28t-22.5 21t-33.5 7z" />
    <glyph glyph-name="Scaron" unicode="&#x160;" horiz-adv-x="579" 
d="M251 492l122 -55q85 -38 122.5 -86.5t37.5 -142.5q0 -90 -67 -155t-175 -65q-52 0 -126 30q-46 19 -55 19q-25 0 -33 -37h-18v231h25v-12q0 -96 64 -150.5t146 -54.5q66 0 112 36.5t46 92.5q0 53 -32.5 84.5t-91.5 58.5l-115 52q-73 33 -110 85.5t-37 140.5q0 84 62 141
t156 57q32 0 69 -15.5t63 -31t31 -15.5q8 0 13 2t9.5 13t4.5 31v4h18v-228h-26q-1 88 -57.5 151t-128.5 63q-57 0 -98 -37.5t-41 -90.5q0 -38 29 -65t81 -51zM126 984h29l135 -109l137 109h32l-129 -176h-89z" />
    <glyph glyph-name="scaron" unicode="&#x161;" horiz-adv-x="449" 
d="M414 146q0 -68 -53 -111.5t-148 -43.5q-66 0 -122 53l-18 -44h-14v167h22v-42q0 -44 45 -78t91 -34q117 0 117 75q0 56 -76 83l-108 44q-61 22 -80.5 54.5t-19.5 86.5q0 60 50 107.5t124 45.5q62 -1 119 -55q17 38 19 46h15v-161h-22v26q0 46 -42 84t-89 38
q-48 0 -80.5 -22.5t-32.5 -50.5q0 -20 16.5 -37.5t47.5 -28.5l120 -46q71 -30 95 -69t24 -87zM59 734h29l135 -109l137 109h32l-129 -176h-89z" />
    <glyph glyph-name="Ydieresis" unicode="&#x178;" horiz-adv-x="612" 
d="M280 732q-26 0 -39.5 -13.5t-13.5 -35.5q0 -21 12 -41l126 -243l138 260q9 17 9 33q0 18 -11 29t-32 11h-19v18h173v-18h-19q-25 0 -40 -13.5t-30 -43.5l-156 -295l1 -267q0 -95 69 -95h31v-18h-341v18h31q70 0 70 95v221l-166 333q-33 65 -88 65h-28v18h357v-18h-34z
M266 886q0 -26 -17.5 -45.5t-44.5 -19.5q-26 0 -45.5 18t-19.5 46q0 26 18 45t45 19q26 0 45 -18t19 -45zM472 886q0 -26 -17.5 -45.5t-44.5 -19.5q-26 0 -45.5 18t-19.5 46q0 26 18 45t45 19q26 0 45 -18t19 -45z" />
    <glyph glyph-name="Zcaron" unicode="&#x17d;" horiz-adv-x="606" 
d="M601 730l-421 -705q26 1 222 1q73 0 110.5 56.5t37.5 138.5q0 7 -0.5 20.5t-0.5 16.5h26v-258h-560v20l420 704h-191q-63 0 -107 -46.5t-44 -112.5v-37h-26v222h534v-20zM171 984h29l135 -109l137 109h32l-129 -176h-89z" />
    <glyph glyph-name="zcaron" unicode="&#x17e;" horiz-adv-x="465" 
d="M427 0h-412v20l284 458h-123q-38 0 -66 -26t-29 -66q0 -4 -0.5 -13.5t-0.5 -13.5h-22v141h391v-19l-284 -459h88q152 0 152 103v22h22v-147zM80 734h29l135 -109l137 109h32l-129 -176h-89z" />
    <glyph glyph-name="circumflex" unicode="&#x2c6;" horiz-adv-x="690" 
d="M373 558h-29l-135 109l-137 -109h-32l129 176h89z" />
    <glyph glyph-name="caron" unicode="&#x2c7;" horiz-adv-x="463" 
d="M40 734h29l135 -109l137 109h32l-129 -176h-89z" />
    <glyph glyph-name="ring" unicode="&#x2da;" horiz-adv-x="333" 
d="M136 546q-44 0 -75 31.5t-31 75.5q0 43 31.5 74.5t74.5 31.5q44 0 75.5 -31t31.5 -75q0 -45 -31.5 -76t-75.5 -31zM136 710q-23 0 -40.5 -17t-17.5 -40t17.5 -40.5t40.5 -17.5t41 17.5t18 40.5t-18 40t-41 17z" />
    <glyph glyph-name="tilde" unicode="&#x2dc;" horiz-adv-x="554" 
d="M454 698h23q-29 -122 -121 -122q-29 0 -73 24t-74 24q-16 0 -34 -16.5t-21 -34.5h-22q7 52 37.5 86.5t80.5 34.5q29 0 71 -24.5t71 -24.5q41 0 62 53z" />
    <glyph glyph-name="afii10023" unicode="&#x401;" horiz-adv-x="659" 
d="M599 0h-583v18h12q52 0 71.5 20.5t19.5 73.5v526q0 52 -19 73t-72 21h-9v18h571v-222h-26v37q0 62 -36 111.5t-96 49.5h-173v-323h39q76 0 105.5 27.5t29.5 103.5v33h26v-361h-26v38q0 75 -29.5 104t-106.5 29h-38v-351h184q48 0 78.5 31.5t41 72.5t10.5 91v37h26v-258z
M290 886q0 -26 -17.5 -45.5t-44.5 -19.5q-26 0 -45.5 18t-19.5 46q0 26 18 45t45 19q26 0 45 -18t19 -45zM496 886q0 -26 -17.5 -45.5t-44.5 -19.5q-26 0 -45.5 18t-19.5 46q0 26 18 45t45 19q26 0 45 -18t19 -45z" />
    <glyph glyph-name="afii10051" unicode="&#x402;" 
d="M460 -160l-18 17q69 69 95 156t26 206q0 222 -135 222q-54 0 -96 -23v-306q0 -57 18.5 -75.5t72.5 -18.5h9v-18h-339v18h9q53 0 72 18.5t19 75.5v612h-37q-74 0 -101.5 -44.5t-27.5 -142.5v-28h-26v241h619v-241h-26v28q0 88 -39.5 137.5t-118.5 49.5h-104v-279
q43 23 117 23q50 0 95.5 -12.5t85.5 -39t64 -73t24 -108.5q0 -125 -74.5 -228t-183.5 -167z" />
    <glyph glyph-name="afii10052" unicode="&#x403;" horiz-adv-x="581" 
d="M557 492h-26v37q0 38 -6 70t-20 61.5t-40.5 46.5t-64.5 17h-139v-611q0 -54 19 -74.5t71 -20.5h15v-18h-350v18h15q53 0 71.5 21.5t18.5 73.5v525q0 54 -19 74t-72 20h-14v18h541v-258zM406 988l-205 -180h-26l110 180h121z" />
    <glyph glyph-name="afii10054" unicode="&#x405;" horiz-adv-x="579" 
d="M251 492l122 -55q85 -38 122.5 -86.5t37.5 -142.5q0 -90 -67 -155t-175 -65q-52 0 -126 30q-46 19 -55 19q-25 0 -33 -37h-18v231h25v-12q0 -96 64 -150.5t146 -54.5q66 0 112 36.5t46 92.5q0 53 -32.5 84.5t-91.5 58.5l-115 52q-73 33 -110 85.5t-37 140.5q0 84 62 141
t156 57q32 0 69 -15.5t63 -31t31 -15.5q8 0 13 2t9.5 13t4.5 31v4h18v-228h-26q-1 88 -57.5 151t-128.5 63q-57 0 -98 -37.5t-41 -90.5q0 -38 29 -65t81 -51z" />
    <glyph glyph-name="afii10055" unicode="&#x406;" horiz-adv-x="374" 
d="M358 0h-342v18h32q69 0 69 95v524q0 95 -69 95h-32v18h342v-18h-32q-69 0 -69 -95v-524q0 -95 69 -95h32v-18z" />
    <glyph glyph-name="afii10056" unicode="&#x407;" horiz-adv-x="374" 
d="M358 0h-342v18h32q69 0 69 95v524q0 95 -69 95h-32v18h342v-18h-32q-69 0 -69 -95v-524q0 -95 69 -95h32v-18zM148 886q0 -26 -17.5 -45.5t-44.5 -19.5q-26 0 -45.5 18t-19.5 46q0 26 18 45t45 19q26 0 45 -18t19 -45zM354 886q0 -26 -17.5 -45.5t-44.5 -19.5
q-26 0 -45.5 18t-19.5 46q0 26 18 45t45 19q26 0 45 -18t19 -45z" />
    <glyph glyph-name="afii10057" unicode="&#x408;" horiz-adv-x="468" 
d="M454 732h-10q-51 0 -70.5 -21t-19.5 -73v-444q0 -93 -54 -149.5t-142 -56.5q-68 0 -106 35.5t-38 97.5q0 40 18.5 60.5t45.5 20.5q28 0 44 -18.5t16 -43.5q0 -24 -15 -41.5t-41 -17.5q-14 0 -30 9q1 -34 30 -55t66 -21q65 0 65 103l1 521q0 52 -19 72.5t-72 21.5h-10v18
h341v-18z" />
    <glyph glyph-name="afii10058" unicode="&#x409;" horiz-adv-x="953" 
d="M457 111v613h-153v-82q0 -327 -46.5 -488.5t-146.5 -161.5q-44 0 -71 28t-27 71q0 39 21.5 64t56.5 25q28 0 47 -21t19 -47q0 -29 -19.5 -48.5t-43.5 -19.5q-11 0 -22.5 3.5t-12.5 3.5q-3 0 -3 -3q0 -4 5 -11t18 -13t30 -6q169 0 169 625q0 89 -78 89h-27v18h529v-18h-14
q-52 0 -71.5 -21.5t-19.5 -72.5v-253h46q48 0 83 -3t76.5 -14t68 -31t44.5 -56.5t18 -87.5q0 -48 -20 -84.5t-49 -56.5t-70.5 -32.5t-76.5 -16t-74 -3.5h-271v18h13q72 0 72 93zM782 193q0 74 -38.5 120t-119.5 46h-27v-333h27q158 0 158 167z" />
    <glyph glyph-name="afii10059" unicode="&#x40a;" horiz-adv-x="1000" 
d="M690 0h-272v18h14q72 0 72 93v268h-248v-267q0 -50 17.5 -72t54.5 -22h13v-18h-325v18h9q52 0 71.5 21t19.5 73v526q0 52 -19 72.5t-72 21.5h-9v18h325v-18h-13q-37 0 -54.5 -22t-17.5 -72v-233h248v233q0 49 -17.5 71.5t-54.5 22.5h-13v18h325v-18h-9q-51 0 -71 -21
t-20 -73v-233h46q48 0 83 -3t76.5 -15t68 -32.5t44.5 -59t18 -92.5q0 -51 -20 -89.5t-49 -59.5t-70.5 -34t-76.5 -16.5t-74 -3.5zM829 203q0 80 -40.5 128t-117.5 48h-27v-353h27q45 0 77 14.5t49 40.5t24.5 56t7.5 66z" />
    <glyph glyph-name="afii10060" unicode="&#x40b;" horiz-adv-x="820" 
d="M809 0h-335v18h19q41 0 56 24.5t15 67.5v187q0 71 -30.5 107.5t-86.5 36.5q-55 0 -115 -30v-299q0 -65 8 -79q9 -15 38 -15h19v-18h-285v18h14q25 0 38.5 3.5t19.5 16t7 23t1 37.5v14v612h-11q-35 0 -60 -10.5t-38.5 -25.5t-20.5 -42t-8.5 -50t-1.5 -59v-28h-26v241h595
v-241h-26v17q0 198 -160 198h-103v-288q47 30 136 30q236 0 236 -167v-189q0 -54 19 -73t72 -19h14v-18z" />
    <glyph glyph-name="afii10061" unicode="&#x40c;" horiz-adv-x="711" 
d="M257 414h51q60 0 90 56q13 26 25 101q6 35 10.5 55t15 48t25 43.5t40 27t58.5 11.5q35 0 64.5 -21.5t29.5 -58.5q0 -31 -20 -54t-52 -23q-27 0 -47 18.5t-20 46.5q0 22 9.5 34.5t18.5 18t9 8.5q0 4 -7 4q-31 0 -52 -17.5t-32 -48t-17 -61t-12.5 -67t-13.5 -56.5
q-18 -51 -60 -75q40 -3 80.5 -16.5t61.5 -35.5q24 -25 37 -62t16 -70t10 -76t18 -72q21 -54 79 -54h13v-18h-61q-103 0 -124 10q-25 11 -42.5 45.5t-23.5 64.5t-12.5 82t-8.5 62q-11 64 -33.5 94t-70.5 30h-52v-276q0 -57 18 -78q15 -16 73 -16h8v-18h-340v18h9
q53 0 72.5 21.5t19.5 72.5v526q0 53 -20 73.5t-72 20.5h-9v18h340v-18h-8q-55 -1 -73 -21t-18 -73v-224zM471 988l-205 -180h-26l110 180h121z" />
    <glyph glyph-name="afii10145" unicode="&#x40f;" horiz-adv-x="785" 
d="M769 0h-252q-56 0 -83.5 -52t-27.5 -113v-25h-26v25q0 61 -29 113t-84 52h-251v18h14q53 0 72 21t19 73v527q0 53 -19.5 73t-71.5 20h-14v18h335v-18h-18q-41 0 -56.5 -24.5t-15.5 -68.5v-613h263v612q0 49 -17.5 71.5t-54.5 22.5h-18v18h335v-18h-14q-53 0 -72 -21
t-19 -73v-526q0 -53 19.5 -73.5t71.5 -20.5h14v-18z" />
    <glyph glyph-name="afii10017" unicode="&#x410;" horiz-adv-x="623" 
d="M668 0h-340v18h20q30 0 47.5 15t17.5 41q0 13 -4 25l-50 171h-215l-49 -163q-7 -23 -7 -40q0 -49 52 -49h19v-18h-194v18h9q39 0 59 20.5t34 68.5l192 643h102l192 -643q15 -47 34 -68t63 -21h18v-18zM351 296l-101 330l-99 -330h200z" />
    <glyph glyph-name="afii10018" unicode="&#x411;" horiz-adv-x="683" 
d="M639 199q0 -96 -68 -147.5t-196 -51.5h-359v18h14q53 0 72 21t19 73v526q0 54 -19.5 74t-71.5 20h-14v18h565v-234h-26q-1 105 -41 156.5t-126 51.5h-127v-321h114q51 0 95 -10t83.5 -31.5t62.5 -63.5t23 -99zM488 199q0 178 -156 178h-71v-351h71q86 0 121 45t35 128z
" />
    <glyph glyph-name="afii10019" unicode="&#x412;" horiz-adv-x="687" 
d="M643 196q0 -196 -275 -196h-352v18h9q52 0 71.5 21t19.5 73v526q0 52 -19 72.5t-72 21.5h-9v18h342q44 0 87.5 -9t85.5 -28.5t68 -58t26 -89.5q0 -65 -54 -111.5t-125 -61.5l1 -6q77 -11 136.5 -62.5t59.5 -127.5zM474 564q0 78 -51.5 119t-135.5 41h-31v-326h31
q81 0 134 45t53 121zM491 196q0 176 -189 176h-46v-346h48q79 0 133 45t54 125z" />
    <glyph glyph-name="afii10020" unicode="&#x413;" horiz-adv-x="581" 
d="M557 492h-26v37q0 38 -6 70t-20 61.5t-40.5 46.5t-64.5 17h-139v-611q0 -54 19 -74.5t71 -20.5h15v-18h-350v18h15q53 0 71.5 21.5t18.5 73.5v525q0 54 -19 74t-72 20h-14v18h541v-258z" />
    <glyph glyph-name="afii10021" unicode="&#x414;" horiz-adv-x="705" 
d="M685 -228h-26q-1 114 -54.5 171t-146.5 57h-259q-89 0 -130 -55t-41 -173h-26v254h81q42 71 71.5 147t48 165.5t27.5 156.5t21 179q0 29 -21.5 43.5t-52.5 14.5h-23v18h514v-18h-14q-52 0 -71.5 -21t-19.5 -73v-612h122v-254zM423 26v698h-139q-1 -4 -12 -107.5t-24 -187
t-48.5 -202t-84.5 -201.5h308z" />
    <glyph glyph-name="afii10022" unicode="&#x415;" horiz-adv-x="659" 
d="M599 0h-583v18h12q52 0 71.5 20.5t19.5 73.5v526q0 52 -19 73t-72 21h-9v18h571v-222h-26v37q0 62 -36 111.5t-96 49.5h-173v-323h39q76 0 105.5 27.5t29.5 103.5v33h26v-361h-26v38q0 75 -29.5 104t-106.5 29h-38v-351h184q48 0 78.5 31.5t41 72.5t10.5 91v37h26v-258z
" />
    <glyph glyph-name="afii10024" unicode="&#x416;" horiz-adv-x="991" 
d="M597 388h-33v-276q0 -58 17.5 -76t73.5 -18h8v-18h-340v18h9q53 1 72.5 22t19.5 72v276h-33q-48 0 -70.5 -30t-33.5 -94q-2 -13 -6 -49t-9 -63t-13 -58.5t-23 -53t-36 -30.5q-21 -10 -124 -10h-61v18h13q58 0 79 54q12 31 19 81t13.5 87.5t24 75.5t58.5 61t108 27
q-44 25 -61 75q-8 24 -16.5 75t-16 86.5t-30.5 64.5t-60 29q-12 0 -12 -5q0 -2 10 -7t19.5 -19t9.5 -37q0 -28 -19.5 -46.5t-47.5 -18.5q-29 0 -48 19t-19 49q0 38 29.5 64.5t65.5 26.5q43 0 71.5 -19t40.5 -49.5t19.5 -67.5t13.5 -74t16.5 -67.5t34.5 -49.5t62 -19h32v224
q0 53 -20 73.5t-72 20.5h-9v18h340v-18h-8q-55 -1 -73 -21t-18 -73v-224h32q38 0 62 19t34.5 49.5t16.5 67.5t13.5 74t19.5 67.5t40.5 49.5t71.5 19q36 0 65.5 -26.5t29.5 -64.5q0 -30 -19 -49t-48 -19q-28 0 -47.5 18.5t-19.5 46.5q0 23 9.5 37t19.5 19t10 7q0 5 -12 5
q-37 0 -60 -29t-30.5 -64.5t-16 -86.5t-16.5 -75q-17 -50 -61 -75q67 -4 108 -27t58.5 -61t24 -75.5t13.5 -87.5t19 -81q21 -54 79 -54h13v-18h-61q-103 0 -124 10q-25 11 -42.5 45.5t-23.5 64.5t-12.5 82t-8.5 62q-11 64 -33.5 94t-70.5 30z" />
    <glyph glyph-name="afii10025" unicode="&#x417;" horiz-adv-x="603" 
d="M559 215q0 -60 -27 -106t-72 -71t-96 -37.5t-107 -12.5q-92 0 -151.5 47.5t-59.5 135.5q0 46 21.5 84.5t63.5 38.5q35 0 54 -21t19 -54q0 -28 -19 -50t-49 -22q-26 0 -43 12.5t-18 12.5q-3 0 -3 -11q0 -67 54 -107t131 -40q151 0 151 202q0 97 -43.5 143.5t-138.5 46.5
h-28v26h27q87 0 122.5 41.5t35.5 121.5q0 56 -25.5 98.5t-77.5 42.5q-77 0 -129.5 -52.5t-56.5 -126.5h-18l9 192h17l5 -43q2 -14 11 -14q2 0 11 7q63 63 151 63q120 0 187 -42t67 -124q0 -135 -184 -173v-6q87 -17 148 -69.5t61 -132.5z" />
    <glyph glyph-name="afii10026" unicode="&#x418;" horiz-adv-x="785" 
d="M261 177v-65q0 -49 17.5 -71.5t54.5 -22.5h18v-18h-335v18h14q53 0 72 21t19 73v526q0 54 -19.5 74t-71.5 20h-14v18h335v-18h-18q-37 0 -54.5 -22.5t-17.5 -71.5v-418l263 372v46q0 49 -17.5 71.5t-54.5 22.5h-18v18h335v-18h-14q-53 0 -72 -21t-19 -73v-527
q0 -54 19 -73.5t72 -19.5h14v-18h-335v18h18q72 0 72 93v438z" />
    <glyph glyph-name="afii10028" unicode="&#x41a;" horiz-adv-x="711" 
d="M257 414h51q60 0 90 56q13 26 25 101q6 35 10.5 55t15 48t25 43.5t40 27t58.5 11.5q35 0 64.5 -21.5t29.5 -58.5q0 -31 -20 -54t-52 -23q-27 0 -47 18.5t-20 46.5q0 22 9.5 34.5t18.5 18t9 8.5q0 4 -7 4q-31 0 -52 -17.5t-32 -48t-17 -61t-12.5 -67t-13.5 -56.5
q-18 -51 -60 -75q40 -3 80.5 -16.5t61.5 -35.5q24 -25 37 -62t16 -70t10 -76t18 -72q21 -54 79 -54h13v-18h-61q-103 0 -124 10q-25 11 -42.5 45.5t-23.5 64.5t-12.5 82t-8.5 62q-11 64 -33.5 94t-70.5 30h-52v-276q0 -57 18 -78q15 -16 73 -16h8v-18h-340v18h9
q53 0 72.5 21.5t19.5 72.5v526q0 53 -20 73.5t-72 20.5h-9v18h340v-18h-8q-55 -1 -73 -21t-18 -73v-224z" />
    <glyph glyph-name="afii10029" unicode="&#x41b;" horiz-adv-x="718" 
d="M702 0h-330v18h13q72 0 72 93v613h-153v-82q0 -327 -46.5 -488.5t-146.5 -161.5q-44 0 -71 28t-27 71q0 39 21.5 64t56.5 25q28 0 47 -21t19 -47q0 -29 -19.5 -48.5t-43.5 -19.5q-11 0 -22.5 3.5t-12.5 3.5q-3 0 -3 -3q0 -4 5 -11t18 -13t30 -6q55 0 87 54q82 137 82 571
q0 89 -78 89h-27v18h529v-18h-14q-53 0 -72 -21t-19 -73v-527q0 -54 19 -73.5t72 -19.5h14v-18z" />
    <glyph glyph-name="afii10030" unicode="&#x41c;" horiz-adv-x="884" 
d="M868 0h-326v18h13q72 0 72 93v613h-3l-232 -712h-16l-231 712h-4v-612q0 -49 17.5 -71.5t54.5 -22.5h13v-18h-210v18h8q52 0 71.5 21t19.5 73v526q0 52 -19 73t-72 21h-8v18h272l158 -489l159 489h263v-18h-9q-52 0 -72 -20.5t-20 -73.5v-527q0 -52 19 -72.5t73 -20.5h9
v-18z" />
    <glyph glyph-name="afii10031" unicode="&#x41d;" horiz-adv-x="775" 
d="M759 0h-326v18h14q72 0 72 93v278h-263v-277q0 -50 17.5 -72t54.5 -22h13v-18h-325v18h9q52 0 71.5 21t19.5 73v524q0 52 -19 73.5t-72 22.5h-9v18h325v-18h-13q-72 0 -72 -96v-221h263v221q0 96 -72 96h-13v18h325v-18h-9q-50 0 -70.5 -22t-20.5 -74v-525
q0 -48 21 -70.5t70 -22.5h9v-18z" />
    <glyph glyph-name="afii10032" unicode="&#x41e;" 
d="M696 374q0 -172 -83.5 -279t-242.5 -107q-160 0 -243 107.5t-83 279.5t83 279.5t243 107.5q161 0 243.5 -107.5t82.5 -280.5zM541 374q0 46 -0.5 68t-3.5 67.5t-9 70.5t-18.5 59.5t-30 52t-45.5 31t-64 13.5q-28 0 -51 -8t-39.5 -19.5t-29.5 -32.5t-21.5 -39t-14.5 -48
t-9 -50t-4.5 -54.5t-1.5 -52.5v-52v-5v-5v-52t1.5 -52.5t4.5 -54.5t9 -50t14.5 -48t21.5 -39t29.5 -32.5t39.5 -19.5t51 -8t51.5 8t40 19.5t29.5 33.5t21.5 39.5t14 49t8.5 50.5t4.5 55.5t1.5 52.5v52z" />
    <glyph glyph-name="afii10033" unicode="&#x41f;" horiz-adv-x="785" 
d="M769 0h-335v18h18q72 0 72 93v613h-263v-612q0 -49 17.5 -71.5t54.5 -22.5h18v-18h-335v18h14q53 0 72 21t19 73v526q0 54 -19.5 74t-71.5 20h-14v18h753v-17h-14q-52 0 -71.5 -21.5t-19.5 -73.5v-527q0 -54 19 -73.5t72 -19.5h14v-18z" />
    <glyph glyph-name="afii10034" unicode="&#x420;" horiz-adv-x="644" 
d="M621 556q0 -88 -74 -140.5t-169 -52.5h-123v-251q0 -55 18.5 -74.5t72.5 -19.5h9v-18h-339v18h9q54 0 72 19.5t18 74.5v526q0 52 -19 73t-71 21h-9v18h363q48 0 89.5 -10.5t76.5 -32.5t55.5 -60.5t20.5 -90.5zM470 556q0 91 -40.5 129.5t-132.5 38.5h-42v-335h41
q174 0 174 167z" />
    <glyph glyph-name="afii10035" unicode="&#x421;" horiz-adv-x="663" 
d="M618 273q-2 -124 -63.5 -204.5t-183.5 -80.5q-75 0 -133 21.5t-94 56.5t-59 85t-32 102t-9 112t8.5 113t31 106.5t57.5 91.5t94 62t135 24q58 0 116 -31q8 -4 20 -11t19.5 -11t17 -7.5t17.5 -3.5q14 0 25 14t12 38h18v-293h-26q0 63 -24 125.5t-74.5 108t-115.5 45.5
q-37 0 -66 -13t-48 -31t-32 -51t-19 -58.5t-9.5 -69.5t-4 -68.5t-0.5 -69.5v-10q0 -152 13 -211q32 -140 162 -140q110 0 165 72.5t56 186.5h26z" />
    <glyph glyph-name="afii10036" unicode="&#x422;" horiz-adv-x="610" 
d="M579 471h-26q-1 131 -35.5 192t-112.5 61h-30v-612q0 -51 19.5 -72.5t71.5 -21.5h8v-18h-339v18h9q52 0 71.5 21t19.5 73v612h-30q-40 0 -68.5 -16t-43 -37t-23 -60t-10.5 -65.5t-4 -74.5h-26v279h549v-279z" />
    <glyph glyph-name="afii10037" unicode="&#x423;" horiz-adv-x="606" 
d="M607 732h-18q-48 0 -79 -86l-202 -549q-38 -103 -124 -103q-51 0 -80.5 30.5t-29.5 73.5q0 38 21.5 64.5t59.5 26.5q25 0 44 -19.5t19 -46.5t-17 -47.5t-47 -20.5q-12 0 -20.5 2.5t-12 5t-4.5 2.5l-2 -2q0 -1 2 -5t7 -10.5t12 -12.5t20 -10.5t28 -4.5q68 0 100 87l22 60
l-207 479q-9 20 -14 30t-15.5 26t-23.5 23t-29 7h-28v18h307v-18h-28q-34 0 -34 -35q0 -21 12 -49l128 -295l107 294q7 20 7 40q0 18 -12.5 31.5t-31.5 13.5h-18v18h181v-18z" />
    <glyph glyph-name="afii10038" unicode="&#x424;" horiz-adv-x="846" 
d="M802 379q0 -52 -19.5 -92t-49.5 -63.5t-72.5 -38t-82.5 -19.5t-85 -5v-49q0 -54 19.5 -74t71.5 -20h14v-18h-350v18h14q53 0 72.5 21t19.5 73v49q-310 4 -310 218q0 64 28.5 109.5t77 68t98 31.5t106.5 9v41q0 53 -20 73.5t-72 20.5h-14v18h350v-18h-14q-53 0 -72 -21
t-19 -73v-41q49 -1 90.5 -7t83 -21t70.5 -39t47 -62.5t18 -88.5zM652 379q0 40 -6 71t-21.5 61t-49 47t-82.5 17v-393q49 0 82.5 17t49 47.5t21.5 61.5t6 71zM354 182v393q-49 0 -82.5 -17t-49 -47t-21.5 -61t-6 -71t6 -71t21.5 -61.5t49 -47.5t82.5 -17z" />
    <glyph glyph-name="afii10039" unicode="&#x425;" horiz-adv-x="660" 
d="M272 642l94 -175l130 203q10 16 10 32q0 30 -37 30h-27v18q36 0 106 -0.5t106 -0.5v-18h-30q-58 0 -87 -46l-157 -245l190 -350q39 -72 99 -72h24v-18h-370v18h29q28 0 45 13.5t17 35.5q0 16 -9 34l-126 233l-149 -235q-10 -16 -10 -31q0 -22 19 -36t47 -14h29v-18h-243
v18h25q52 0 104 81l164 260l-165 307q-35 66 -88 66h-28v18h350v-18h-44q-33 0 -33 -36q0 -26 15 -54z" />
    <glyph glyph-name="afii10040" unicode="&#x426;" horiz-adv-x="805" 
d="M785 -229h-26q-1 114 -54.5 171.5t-147.5 57.5h-541v18h14q53 0 72 21t19 73v526q0 54 -19.5 74t-71.5 20h-14v18h330v-18h-13q-37 0 -54.5 -22.5t-17.5 -71.5v-612h263v612q0 49 -17.5 71.5t-54.5 22.5h-13v18h330v-18h-14q-53 0 -72 -21t-19 -73v-612h121v-255z" />
    <glyph glyph-name="afii10041" unicode="&#x427;" horiz-adv-x="709" 
d="M693 732h-14q-53 -1 -72 -22.5t-19 -74.5v-523q0 -54 19.5 -74t71.5 -20h13v-18h-346v18h13q52 0 70.5 21t18.5 73v219q-48 -33 -132 -33q-101 0 -156.5 42.5t-55.5 125.5v169q0 55 -19.5 76t-71.5 21h-14v18h335v-18h-17q-73 0 -73 -97v-198q0 -22 2 -35.5t9.5 -34
t28 -31.5t52.5 -11q33 0 65.5 11.5t46.5 25.5v273q0 97 -71 97h-17v18h333v-18z" />
    <glyph glyph-name="afii10042" unicode="&#x428;" horiz-adv-x="1133" 
d="M1117 0h-1101v18h9q53 0 72 21t19 73v524q0 55 -19 75.5t-72 20.5h-9v18h324v-18h-13q-42 0 -56.5 -25.5t-14.5 -70.5v-610h241v609q0 97 -72 97h-13v18h324v-18h-9q-52 0 -71 -22t-19 -75v-609h242v609q0 97 -73 97h-12v18h323v-18h-9q-53 0 -71 -21.5t-18 -75.5v-523
q0 -54 18.5 -74t70.5 -20h9v-18z" />
    <glyph glyph-name="afii10065" unicode="&#x430;" horiz-adv-x="519" 
d="M505 143v-62q0 -42 -27 -65t-81 -23q-39 0 -69.5 23.5t-35.5 61.5q-46 -85 -143 -85q-52 0 -85.5 26t-33.5 81q0 66 47 109.5t123 62.5l92 23v74q0 66 -10 86q-15 32 -60 32q-54 0 -85 -21q-4 -3 -4 -5q0 -3 3 -3q17 -4 30 -19t13 -36q0 -25 -18 -44t-44 -19
q-23 0 -39 16t-16 40q0 54 50.5 83.5t109.5 29.5q35 0 65 -5.5t63 -20t52.5 -46.5t19.5 -79v-287q0 -43 27 -43q17 0 25.5 16t8.5 37v62h22zM293 126l-1 147q-70 -18 -96 -42q-34 -31 -34 -118q0 -29 17 -47.5t41 -18.5q44 0 73 79z" />
    <glyph glyph-name="afii10066" unicode="&#x431;" horiz-adv-x="555" 
d="M515 250q0 -109 -62.5 -184t-165.5 -75q-109 0 -168 72.5t-59 186.5q0 60 2.5 105.5t9 97t20.5 88.5t35.5 70t54.5 53t77 27l101 15q20 3 32 5.5t28 12.5t21 26h22q0 -51 -15 -93t-43 -57q-8 -4 -19.5 -7.5t-31 -7l-31.5 -5.5t-42.5 -6t-43.5 -6q-146 -21 -152 -204h4
q24 62 83.5 103.5t122.5 41.5q57 0 100.5 -22.5t69 -60.5t38 -82.5t12.5 -93.5zM380 250q0 49 -1 79.5t-6 63t-14 50t-25 29t-39 11.5q-55 0 -77.5 -59.5t-22.5 -173.5q0 -79 6.5 -126t27 -77t58.5 -30q55 0 74 57t19 176z" />
    <glyph glyph-name="afii10067" unicode="&#x432;" horiz-adv-x="520" 
d="M480 133q0 -67 -48 -100t-151 -33h-261v18h14q32 0 44.5 15t12.5 45v346q0 32 -13.5 45t-43.5 13h-14v18h285q83 0 121 -30t38 -93q0 -95 -141 -118q157 -19 157 -126zM332 378q0 58 -23.5 79t-75.5 21h-12v-211h9q60 0 81 26t21 85zM345 133q0 63 -28.5 87.5t-86.5 24.5
h-9v-223h9q61 0 88 24.5t27 86.5z" />
    <glyph glyph-name="afii10068" unicode="&#x433;" horiz-adv-x="425" 
d="M415 296h-22q0 39 -2 62t-9 49t-21 39.5t-38.5 22.5t-60.5 9h-38v-400q0 -33 13 -46.5t44 -13.5h17v-18h-278v18h17q32 0 44.5 14.5t12.5 45.5v345q0 32 -13.5 45.5t-43.5 13.5h-10v18h388v-204z" />
    <glyph glyph-name="afii10069" unicode="&#x434;" horiz-adv-x="525" 
d="M495 -178h-22q-2 92 -34 135t-116 43h-151q-87 0 -118.5 -45.5t-31.5 -132.5h-22v200h43q40 0 65 69t32.5 144t7.5 151q0 33 -2 55q-2 16 -14 28.5t-29 12.5h-23v18h415v-18h-13q-32 0 -45 -14.5t-13 -44.5v-401h71v-200zM294 22v456h-123v-42q0 -139 -9 -214
q-19 -157 -66 -200h198z" />
    <glyph glyph-name="afii10070" unicode="&#x435;" horiz-adv-x="507" 
d="M446 162h22q-7 -82 -57 -126.5t-121 -44.5q-117 0 -183.5 69.5t-66.5 189.5q0 103 66.5 181t174.5 78q94 0 145 -58t51 -169h-297v-32q0 -114 14 -159q25 -78 96 -78q63 0 107 39t49 110zM281 487q-56 0 -78 -44.5t-23 -138.5h177q0 6 1 25.5t0.5 33t-2 34t-6.5 34.5
t-13 28t-22.5 21t-33.5 7z" />
    <glyph glyph-name="afii10072" unicode="&#x436;" horiz-adv-x="754" 
d="M442 250v-174q0 -37 12 -47.5t48 -10.5h11v-18h-272v18h11q37 0 48.5 10.5t11.5 47.5v174h-25q-8 0 -14 -1.5t-10.5 -5.5t-7.5 -7.5t-6 -12l-4.5 -13t-4.5 -17t-5 -18.5l-38 -129q-13 -46 -116 -46h-82v18q24 0 46 13t28 36l37 131q8 28 51 49t76 21q-19 12 -32 48.5
t-19 72.5t-22 64.5t-41 28.5q-6 0 -6 -4q0 -3 5 -6.5t11.5 -7.5t11.5 -14.5t5 -25.5q0 -25 -18 -42t-42 -17q-27 0 -44 18.5t-17 45.5q0 36 23.5 56t56.5 20q41 0 63 -25t34 -79q17 -83 33.5 -106t51.5 -23h21v152q0 32 -13 45t-47 13h-11v18h272v-18h-11q-34 0 -47 -13
t-13 -45v-152h21q35 0 51.5 23t33.5 106q12 54 34 79t63 25q33 0 56.5 -20t23.5 -56q0 -27 -17 -45.5t-44 -18.5q-24 0 -42 17t-18 42q0 15 5 25.5t11.5 14.5t11.5 7.5t5 6.5q0 4 -6 4q-25 0 -41 -28.5t-22 -64.5t-19 -72.5t-32 -48.5q33 0 76 -21t51 -49l37 -131
q6 -23 28 -36t46 -13v-18h-82q-103 0 -116 46l-38 129l-6 21l-5.5 19.5t-5.5 14t-8 11.5t-11 6t-16 3h-25z" />
    <glyph glyph-name="afii10073" unicode="&#x437;" horiz-adv-x="458" 
d="M418 143q0 -71 -60.5 -111.5t-158.5 -40.5q-65 0 -114 31t-49 95q0 34 16.5 53t41.5 19q22 0 37.5 -14.5t15.5 -36.5q0 -26 -16 -43.5t-39 -17.5q-12 0 -12 -8q0 -17 33.5 -36.5t82.5 -19.5q85 0 85 122q0 67 -22.5 95t-85.5 28h-44v22h44q52 0 75.5 29.5t23.5 88.5
q0 33 -15.5 61t-51.5 28q-49 0 -82 -40t-33 -94h-18v147h18q0 -13 4 -16.5t13 -3.5q3 0 19 7.5t44.5 15t61.5 7.5q79 0 125 -29t46 -78q0 -55 -38 -87.5t-96 -43.5v-2q65 -5 107 -36t42 -91z" />
    <glyph glyph-name="afii10074" unicode="&#x438;" horiz-adv-x="587" 
d="M221 126v-47q0 -61 44 -61h6v-18h-251v18h14q33 0 45 14.5t12 46.5v344q0 33 -12.5 46t-44.5 13h-14v18h252v-18h-7q-44 0 -44 -59v-256l146 216q0 54 -8 76.5t-36 22.5h-7v18h251v-18h-12q-32 0 -45 -14t-13 -45v-345q0 -32 13.5 -46t44.5 -14h12v-18h-251v18h7
q44 0 44 60v264z" />
    <glyph glyph-name="afii10076" unicode="&#x43a;" horiz-adv-x="536" 
d="M21 18h16q34 0 44 11.5t10 48.5v354q0 29 -13 39.5t-44 10.5h-14v18h273v-18h-14q-33 0 -45.5 -10.5t-12.5 -39.5v-158h16q28 0 49.5 21t30.5 53l26 85q22 72 87 72q34 0 57.5 -18.5t23.5 -53.5q0 -27 -16.5 -42.5t-40.5 -15.5t-36.5 15t-12.5 36q0 15 6.5 25.5
t13.5 15.5t7 7q1 8 -13 8q-38 0 -55 -55l-27 -88q-19 -60 -48 -69v-2q50 -1 94 -17t51 -49q38 -184 92 -184h20v-18h-138q-33 0 -46 17q-10 13 -19 37.5t-15 47.5t-17 73q-17 77 -71 77h-19v-174q0 -60 44 -60h17v-18h-261v18z" />
    <glyph glyph-name="afii10077" unicode="&#x43b;" horiz-adv-x="524" 
d="M303 478h-102v-69q0 -156 -16 -247q-29 -168 -118 -168q-35 0 -57 18.5t-22 51.5q0 34 17.5 51t40.5 17q22 0 39 -14.5t17 -38.5q0 -23 -13.5 -38.5t-29.5 -15.5q-9 0 -9 -3q0 -6 18 -6q69 0 95 152q16 93 16 273q0 18 -13.5 29.5t-31.5 11.5h-26v18h396v-18h-13
q-34 0 -46 -11.5t-12 -47.5v-346q0 -37 12 -48t46 -11h13v-18h-262v18h17q44 0 44 59v401z" />
    <glyph glyph-name="afii10078" unicode="&#x43c;" horiz-adv-x="674" 
d="M654 0h-271v18h14q34 0 46 12q11 11 11 48v371h-5l-159 -441h-16l-155 441h-6v-371q0 -35 11 -48q12 -12 47 -12h14v-18h-165v18h13q34 0 46 12t12 48v344q0 35 -11 48q-10 12 -47 12h-13v18h222l98 -284l103 284h211v-18h-13q-34 0 -46 -12q-11 -11 -11 -47v-345
q0 -37 10 -48q12 -12 46 -12h14v-18z" />
    <glyph glyph-name="afii10079" unicode="&#x43d;" horiz-adv-x="587" 
d="M567 0h-251v18h7q44 0 44 59v173h-146v-172q0 -60 44 -60h6v-18h-251v18h14q33 0 45 14t12 46v345q0 33 -13 46t-44 13h-14v18h252v-18h-7q-44 0 -44 -59v-151h146v151q0 59 -44 59h-7v18h251v-18h-12q-32 0 -45 -14t-13 -45v-346q0 -33 13.5 -46t44.5 -13h12v-18z" />
    <glyph glyph-name="afii10080" unicode="&#x43e;" horiz-adv-x="564" 
d="M524 256q0 -119 -68 -192t-174 -73t-174 73t-68 192q0 118 66 185.5t176 67.5q107 0 174.5 -67.5t67.5 -185.5zM384 256v29.5t-1 33.5t-3.5 39.5l-7 37t-12 36.5t-18 27.5t-26 21t-34.5 6.5t-34.5 -6.5t-26 -21t-18 -27.5t-12 -36.5l-7 -37t-3.5 -39.5t-1 -33.5v-29.5
v-29.5t1 -35t3.5 -41.5l7 -39t12 -39t18 -29.5t26 -22.5t34.5 -7t34.5 7t26 22.5t18 29.5t12 39l7 39t3.5 41.5t1 35v29.5z" />
    <glyph glyph-name="afii10081" unicode="&#x43f;" horiz-adv-x="589" 
d="M569 0h-251v18h6q44 0 44 59v401h-147v-400q0 -60 44 -60h6v-18h-251v18h14q33 0 45 14t12 46v345q0 33 -12.5 46t-44.5 13h-14v18h549v-18h-13q-32 0 -45 -14t-13 -45v-346q0 -33 13.5 -46t44.5 -13h13v-18z" />
    <glyph glyph-name="afii10082" unicode="&#x440;" horiz-adv-x="582" 
d="M542 260q0 -122 -61.5 -195.5t-172.5 -73.5q-24 0 -52 12.5t-41 30.5v-192q0 -53 74 -53h15v-18h-308v18h16q73 0 73 53v581q0 35 -10 47q-12 12 -47 12h-9v18h196v-54q16 27 46.5 45t63.5 18q110 0 163.5 -65t53.5 -184zM402 250q0 117 -10 159q-18 78 -72 78
q-33 0 -69 -35t-36 -78v-277q0 -36 30 -60t62 -24q29 0 49.5 25t29.5 66t12.5 76t3.5 70z" />
    <glyph glyph-name="afii10083" unicode="&#x441;" horiz-adv-x="480" 
d="M422 160h22q0 -68 -47.5 -118.5t-114.5 -50.5q-114 0 -178 68t-64 184q0 111 65.5 188.5t176.5 77.5q161 0 161 -142q0 -25 -18 -45.5t-44 -20.5q-25 0 -41.5 14.5t-16.5 44.5q0 26 15.5 44.5t39.5 18.5q11 0 11 10q0 21 -36 37.5t-71 16.5q-34 0 -56 -22t-31 -63
t-12 -74t-3 -79t1.5 -76t7.5 -63.5t16.5 -52.5t30 -31.5t46.5 -12.5q60 0 100 43.5t40 103.5z" />
    <glyph glyph-name="afii10084" unicode="&#x442;" horiz-adv-x="472" 
d="M25 500h422v-205h-20v5q0 178 -119 178h-7v-415q0 -45 57 -45h22v-18h-289v18h23q57 0 57 45v415h-17q-58 0 -83.5 -43.5t-25.5 -134.5v-5h-20v205z" />
    <glyph glyph-name="afii10085" unicode="&#x443;" horiz-adv-x="482" 
d="M518 482h-24q-52 0 -74 -69l-178 -525q-43 -126 -143 -126q-33 0 -61 21t-28 55q0 28 16.5 48.5t47.5 20.5q26 0 42 -17.5t16 -43.5q0 -21 -10 -34t-20 -18t-10 -7q0 -4 15 -4q37 0 67 29.5t47 83.5l6 19l-176 516q-17 51 -64 51h-17v18h276v-18h-26q-31 0 -31 -34
q0 -19 8 -43l97 -296l104 308q4 11 4 22q0 19 -12 31t-36 12h-25v18h189v-18z" />
    <glyph glyph-name="afii10086" unicode="&#x444;" horiz-adv-x="794" 
d="M754 250q0 -105 -56 -183t-151 -78q-38 0 -86 26v-166q0 -36 12 -48t46 -12h16v-18h-277v18h17q36 0 45 12q12 12 12 48q0 94 -1 166q-2 -1 -8 -4.5t-8 -4t-7 -3.5t-7.5 -4l-7.5 -3t-8 -2.5t-8 -1.5t-9 -1.5t-9.5 -1t-11.5 -0.5q-52 0 -93 23t-65 61t-36.5 83.5
t-12.5 93.5q0 121 53.5 190t153.5 69q45 0 84 -28v190q0 37 -12 49q-11 12 -45 12h-14v18h201v-269q39 28 86 28q103 0 155 -68.5t52 -190.5zM619 250q0 237 -82 237q-39 0 -76 -39v-400q46 -37 86 -37q13 0 23.5 6t18 18.5t13 25.5t9 33.5t5.5 35t2.5 37t0.5 33v29.5v21z
M331 48v400q-37 39 -74 39q-82 0 -82 -237v-21v-29.5t0.5 -33t2.5 -37t5.5 -35t9 -33.5t13 -25.5t18 -18.5t23.5 -6q49 0 84 37z" />
    <glyph glyph-name="afii10087" unicode="&#x445;" horiz-adv-x="485" 
d="M227 430l53 -100l76 113q5 10 5 15q0 24 -41 24h-19v18h165v-18h-20q-38 0 -67 -43l-88 -131l129 -239q27 -51 65 -51h25v-18h-282v18q54 0 54 31q0 10 -7 21l-72 135l-94 -146q-6 -9 -6 -16q0 -11 11 -18t27 -7h18v-18h-169v18h23q39 0 77 53q-1 0 102 156l-111 209
q-24 46 -62 46h-13v18h256v-18h-10q-34 0 -34 -24q0 -12 9 -28z" />
    <glyph glyph-name="afii10088" unicode="&#x446;" horiz-adv-x="584" 
d="M569 483h-13q-32 -1 -45 -14.5t-13 -44.5v-402h66v-200h-22q-2 97 -34.5 137.5t-125.5 40.5h-361v18h14q33 0 45 14.5t12 45.5v346q0 36 -11 47q-12 12 -46 12h-15v18h253v-18h-7q-43 0 -43 -59v-398h146q0 66 -0.5 199t-0.5 199q0 59 -44 59h-6v18h251v-18z" />
    <glyph glyph-name="afii10089" unicode="&#x447;" horiz-adv-x="540" 
d="M520 0h-273v18h14q35 0 46 12q12 12 12 48v154q-39 -29 -95 -29q-79 0 -118.5 32t-39.5 89v99q0 32 -13.5 45.5t-43.5 13.5h-14v18h243v-18h-2q-22 0 -31 -14t-9 -45v-86q0 -31 0.5 -42t4 -31t12.5 -27.5t25 -7.5q24 0 50.5 15.5t30.5 34.5v143q0 60 -39 60h-2v18h242
v-18h-14q-32 0 -44.5 -14t-12.5 -46v-344q0 -35 11 -48q12 -12 46 -12h14v-18z" />
    <glyph glyph-name="afii10090" unicode="&#x448;" horiz-adv-x="845" 
d="M825 0h-805v18h13q32 0 44.5 14.5t12.5 44.5v346q0 32 -13 45.5t-43 13.5h-14v18h245v-18h-4q-23 0 -32 -14.5t-9 -44.5v-397h137v396q0 60 -38 60h-5v18h217v-18h-4q-40 0 -40 -60v-396h137v397q0 59 -39 59h-4v18h244v-18h-14q-33 0 -45 -14t-12 -45v-346
q0 -32 13.5 -45.5t43.5 -13.5h13z" />
    <glyph glyph-name="afii10071" unicode="&#x451;" horiz-adv-x="507" 
d="M446 162h22q-7 -82 -57 -126.5t-121 -44.5q-117 0 -183.5 69.5t-66.5 189.5q0 103 66.5 181t174.5 78q94 0 145 -58t51 -169h-297v-32q0 -114 14 -159q25 -78 96 -78q63 0 107 39t49 110zM281 487q-56 0 -78 -44.5t-23 -138.5h177q0 6 1 25.5t0.5 33t-2 34t-6.5 34.5
t-13 28t-22.5 21t-33.5 7zM214 636q0 -26 -17.5 -45.5t-44.5 -19.5q-26 0 -45.5 18t-19.5 46q0 26 18 45t45 19q26 0 45 -18t19 -45zM420 636q0 -26 -17.5 -45.5t-44.5 -19.5q-26 0 -45.5 18t-19.5 46q0 26 18 45t45 19q26 0 45 -18t19 -45z" />
    <glyph glyph-name="afii10099" unicode="&#x452;" horiz-adv-x="564" 
d="M519 262q0 -151 -57.5 -277.5t-164.5 -207.5l-19 18q64 75 87 203q19 106 19 262q0 82 -20.5 154.5t-63.5 72.5q-40 0 -62 -20t-22 -41v-348q0 -33 13.5 -46.5t44.5 -13.5h9v-18h-263v18h9q32 0 44.5 14.5t12.5 45.5v508h-74v22h74v62q0 32 -13.5 47t-43.5 15h-9v18h196
v-142h154v-22h-154v-108q39 31 94 31q95 0 152 -63.5t57 -183.5z" />
    <glyph glyph-name="afii10100" unicode="&#x453;" horiz-adv-x="425" 
d="M415 296h-22q0 39 -2 62t-9 49t-21 39.5t-38.5 22.5t-60.5 9h-38v-400q0 -33 13 -46.5t44 -13.5h17v-18h-278v18h17q32 0 44.5 14.5t12.5 45.5v345q0 32 -13.5 45.5t-43.5 13.5h-10v18h388v-204zM328 738l-205 -180h-26l110 180h121z" />
    <glyph glyph-name="afii10102" unicode="&#x455;" horiz-adv-x="449" 
d="M414 146q0 -68 -53 -111.5t-148 -43.5q-66 0 -122 53l-18 -44h-14v167h22v-42q0 -44 45 -78t91 -34q117 0 117 75q0 56 -76 83l-108 44q-61 22 -80.5 54.5t-19.5 86.5q0 60 50 107.5t124 45.5q62 -1 119 -55q17 38 19 46h15v-161h-22v26q0 46 -42 84t-89 38
q-48 0 -80.5 -22.5t-32.5 -50.5q0 -20 16.5 -37.5t47.5 -28.5l120 -46q71 -30 95 -69t24 -87z" />
    <glyph glyph-name="afii10103" unicode="&#x456;" horiz-adv-x="303" 
d="M215 662q0 -27 -18 -45.5t-44 -18.5q-27 0 -45.5 18t-18.5 45q0 26 18.5 46t44.5 20q27 0 45 -19.5t18 -45.5zM283 0h-263v18h9q31 0 44.5 13.5t13.5 46.5v345q0 59 -50 59h-17v18h197v-422q0 -32 12.5 -46t44.5 -14h9v-18z" />
    <glyph glyph-name="afii10104" unicode="&#x457;" horiz-adv-x="303" 
d="M283 0h-263v18h9q31 0 44.5 13.5t13.5 46.5v345q0 59 -50 59h-17v18h197v-422q0 -32 12.5 -46t44.5 -14h9v-18zM92 636q0 -26 -17.5 -45.5t-44.5 -19.5q-26 0 -45.5 18t-19.5 46q0 26 18 45t45 19q26 0 45 -18t19 -45zM298 636q0 -26 -17.5 -45.5t-44.5 -19.5
q-26 0 -45.5 18t-19.5 46q0 26 18 45t45 19q26 0 45 -18t19 -45z" />
    <glyph glyph-name="afii10105" unicode="&#x458;" horiz-adv-x="299" 
d="M240 662q0 -27 -18.5 -45t-44.5 -18q-27 0 -45 17.5t-18 44.5t18 46.5t44 19.5q27 0 45.5 -19.5t18.5 -45.5zM242 500v-490q0 -114 -52.5 -181t-150.5 -67q-45 0 -84.5 28.5t-39.5 82.5q0 30 18.5 47.5t44.5 17.5q28 0 43 -17.5t15 -44.5q0 -25 -17 -43t-45 -18
q-4 0 -4 -2q-1 -4 6 -10.5t24 -12.5t39 -6q73 0 73 119v520q0 59 -49 59h-17v18h196z" />
    <glyph glyph-name="afii10106" unicode="&#x459;" horiz-adv-x="664" 
d="M108 482v18h396v-18h-13q-34 0 -46 -11.5t-12 -47.5v-152h19q35 0 60.5 -2t55 -10.5t48 -22.5t31 -40.5t12.5 -62.5q0 -69 -58.5 -101t-148.5 -32h-210v18h17q44 0 44 59v401h-102v-69q0 -49 -1 -85.5t-5 -90t-13 -91.5t-23 -74t-37.5 -55t-54.5 -19q-35 0 -57 18.5
t-22 51.5q0 34 17.5 51t40.5 17q22 0 39 -14.5t17 -38.5q0 -14 -5.5 -25t-13 -17t-15 -9t-12.5 -4l-6 -2q0 -6 18 -6q57 0 84 97t27 328q0 18 -13.5 29.5t-31.5 11.5h-26zM529 133q0 116 -92 116h-4v-227h4q29 0 48.5 11.5t28.5 31t12 35.5t3 33z" />
    <glyph glyph-name="afii10107" unicode="&#x45a;" horiz-adv-x="729" 
d="M724 134q0 -66 -55.5 -100t-151.5 -34h-201v18h7q45 0 45 59v172h-147v-171q0 -60 44 -60h6v-18h-251v18h14q32 0 44.5 14.5t12.5 45.5v345q0 32 -13.5 45.5t-43.5 13.5h-14v18h252v-18h-7q-44 0 -44 -59v-152h147v152q0 59 -45 59h-7v18h252v-18h-13q-31 0 -44 -14
t-13 -45v-152h19q33 0 56.5 -1.5t54 -9.5t50 -22t33 -40.5t13.5 -63.5zM594 134q0 56 -20.5 85.5t-71.5 29.5h-4v-227h4q92 0 92 112z" />
    <glyph glyph-name="afii10108" unicode="&#x45b;" horiz-adv-x="593" 
d="M579 0h-261v18h17q44 0 44 59v260q0 148 -74 148q-49 0 -87 -38l-1 -369q0 -60 43 -60h17v-18h-262v18h14q33 0 45 14.5t12 45.5v508h-74v22h74v65q0 33 -13 46t-44 13h-14v18h202v-142h139v-22h-139v-111q42 34 108 34q90 0 137 -46.5t47 -133.5v-252q0 -32 13 -45.5
t43 -13.5h14v-18z" />
    <glyph glyph-name="afii10109" unicode="&#x45c;" horiz-adv-x="536" 
d="M21 18h16q34 0 44 11.5t10 48.5v354q0 29 -13 39.5t-44 10.5h-14v18h273v-18h-14q-33 0 -45.5 -10.5t-12.5 -39.5v-158h16q28 0 49.5 21t30.5 53l26 85q22 72 87 72q34 0 57.5 -18.5t23.5 -53.5q0 -27 -16.5 -42.5t-40.5 -15.5t-36.5 15t-12.5 36q0 15 6.5 25.5
t13.5 15.5t7 7q1 8 -13 8q-38 0 -55 -55l-27 -88q-19 -60 -48 -69v-2q50 -1 94 -17t51 -49q38 -184 92 -184h20v-18h-138q-33 0 -46 17q-10 13 -19 37.5t-15 47.5t-17 73q-17 77 -71 77h-19v-174q0 -60 44 -60h17v-18h-261v18zM384 738l-205 -180h-26l110 180h121z" />
    <glyph glyph-name="afii10193" unicode="&#x45f;" horiz-adv-x="587" 
d="M567 0h-190q-41 0 -55.5 -40.5t-16.5 -131.5h-22q0 32 -1 52t-5 45.5t-11.5 40t-22.5 24.5t-36 10h-187v18h13q32 0 44.5 14t12.5 45v346q0 35 -11.5 47t-44.5 12h-14v18h250v-18h-5q-44 0 -44 -59v-397h145v397q0 59 -44 59h-4v18h249v-18h-13q-33 0 -45.5 -14.5
t-12.5 -45.5v-345q0 -32 14 -45.5t44 -13.5h13v-18z" />
    <glyph glyph-name="endash" unicode="&#x2013;" horiz-adv-x="600" 
d="M550 308h-500v36h500v-36z" />
    <glyph glyph-name="emdash" unicode="&#x2014;" horiz-adv-x="940" 
d="M890 308h-840v36h840v-36z" />
    <glyph glyph-name="quoteleft" unicode="&#x2018;" horiz-adv-x="211" 
d="M106 497q-30 1 -45.5 24.5t-15.5 52.5q0 46 18.5 88.5t73.5 99.5l16 -12q-20 -19 -40.5 -51.5t-20.5 -60.5q0 -17 1 -20q7 2 20 2q53 0 53 -62q0 -27 -17 -44t-43 -17z" />
    <glyph glyph-name="quoteright" unicode="&#x2019;" horiz-adv-x="211" 
d="M105 762q30 -1 45.5 -24.5t15.5 -52.5q0 -46 -18.5 -88.5t-73.5 -99.5l-16 12q20 19 40.5 51.5t20.5 60.5q0 17 -1 20q-7 -2 -20 -2q-53 0 -53 62q0 27 17 44t43 17z" />
    <glyph glyph-name="quotesinglbase" unicode="&#x201a;" horiz-adv-x="211" 
d="M105 101q30 -1 45.5 -24.5t15.5 -52.5q0 -46 -18.5 -88.5t-73.5 -99.5l-16 12q20 19 40.5 51.5t20.5 60.5q0 17 -1 20q-7 -2 -20 -2q-53 0 -53 62q0 27 17 44t43 17z" />
    <glyph glyph-name="quotedblleft" unicode="&#x201c;" horiz-adv-x="363" 
d="M258 497q-30 1 -45.5 24.5t-15.5 52.5q0 46 18.5 88.5t73.5 99.5l16 -12q-20 -19 -40.5 -51.5t-20.5 -60.5q0 -17 1 -20q7 2 20 2q53 0 53 -62q0 -27 -17 -44t-43 -17zM106 497q-30 1 -45.5 24.5t-15.5 52.5q0 46 18.5 88.5t73.5 99.5l16 -12q-20 -19 -40.5 -51.5
t-20.5 -60.5q0 -17 1 -20q7 2 20 2q53 0 53 -62q0 -27 -17 -44t-43 -17z" />
    <glyph glyph-name="quotedblright" unicode="&#x201d;" horiz-adv-x="363" 
d="M105 762q30 -1 45.5 -24.5t15.5 -52.5q0 -46 -18.5 -88.5t-73.5 -99.5l-16 12q20 19 40.5 51.5t20.5 60.5q0 17 -1 20q-7 -2 -20 -2q-53 0 -53 62q0 27 17 44t43 17zM257 762q30 -1 45.5 -24.5t15.5 -52.5q0 -46 -18.5 -88.5t-73.5 -99.5l-16 12q20 19 40.5 51.5
t20.5 60.5q0 17 -1 20q-7 -2 -20 -2q-53 0 -53 62q0 27 17 44t43 17z" />
    <glyph glyph-name="quotedblbase" unicode="&#x201e;" horiz-adv-x="363" 
d="M105 101q30 -1 45.5 -24.5t15.5 -52.5q0 -46 -18.5 -88.5t-73.5 -99.5l-16 12q20 19 40.5 51.5t20.5 60.5q0 17 -1 20q-7 -2 -20 -2q-53 0 -53 62q0 27 17 44t43 17zM257 101q30 -1 45.5 -24.5t15.5 -52.5q0 -46 -18.5 -88.5t-73.5 -99.5l-16 12q20 19 40.5 51.5
t20.5 60.5q0 17 -1 20q-7 -2 -20 -2q-53 0 -53 62q0 27 17 44t43 17z" />
    <glyph glyph-name="dagger" unicode="&#x2020;" horiz-adv-x="507" 
d="M463 466q0 -53 -49 -53q-22 0 -61 17q-38 19 -89 22q0 -63 3 -87q9 -68 44 -105q-31 -33 -40 -83.5t-9 -138.5h-29q0 181 -47 222q49 58 49 192q-52 -3 -88 -21q-39 -18 -62 -18q-50 0 -50 53q0 26 17 40q15 12 33 12q23 0 61 -19q36 -19 89 -21q0 76 -21 122t-21 65
q0 23 17 40q17 16 40 16q21 0 38 -16q17 -17 17 -40q0 -21 -21 -64q-21 -49 -20 -123q49 1 88 20q42 20 62 20q17 0 32 -12q17 -14 17 -40z" />
    <glyph glyph-name="daggerdbl" unicode="&#x2021;" horiz-adv-x="500" 
d="M463 466q0 -53 -49 -53q-22 0 -61 17q-38 19 -89 22q0 -63 3 -87q9 -68 44 -105q-33 -34 -44 -103q-5 -32 -5 -93q52 3 90 22q39 17 60 17q50 0 50 -54q0 -24 -15 -37q-17 -14 -35 -14q-23 0 -61 19q-36 19 -89 21q0 -75 21 -119t21 -61q0 -23 -17 -40t-38 -17
q-23 0 -40 17t-17 40q0 18 21 61q21 44 20 119q-49 -1 -88 -20q-42 -20 -62 -20q-17 0 -32 12q-17 14 -17 39q0 54 49 54q25 0 62 -18q36 -18 88 -21q0 155 -47 196q49 58 49 192q-52 -3 -88 -21q-39 -18 -62 -18q-50 0 -50 53q0 26 17 40q15 12 33 12q23 0 61 -19
q36 -19 89 -21q0 76 -21 122t-21 65q0 23 17 40q17 16 40 16q21 0 38 -16q17 -17 17 -40q0 -21 -21 -64q-21 -49 -20 -123q49 1 88 20q42 20 62 20q17 0 32 -12q17 -14 17 -40z" />
    <glyph glyph-name="bullet" unicode="&#x2022;" horiz-adv-x="313" 
d="M272 333q0 -47 -34 -81t-81 -34q-46 0 -81 34t-35 80q0 48 35 82t82 34q45 0 79.5 -35t34.5 -80z" />
    <glyph glyph-name="ellipsis" unicode="&#x2026;" horiz-adv-x="714" 
d="M187 61q0 -26 -17.5 -45.5t-44.5 -19.5q-26 0 -45.5 18t-19.5 46q0 26 18 45t45 19q26 0 45 -18t19 -45zM447 61q0 -26 -17.5 -45.5t-44.5 -19.5q-26 0 -45.5 18t-19.5 46q0 26 18 45t45 19q26 0 45 -18t19 -45zM707 61q0 -26 -17.5 -45.5t-44.5 -19.5q-26 0 -45.5 18
t-19.5 46q0 26 18 45t45 19q26 0 45 -18t19 -45z" />
    <glyph glyph-name="perthousand" unicode="&#x2030;" horiz-adv-x="1039" 
d="M566 710l-403 -718l-33 16l403 718zM307 523q0 -72 -34 -131.5t-95 -59.5q-42 0 -72.5 31t-43.5 73t-13 87q0 73 33.5 132t95.5 59q42 0 72.5 -31t43.5 -73t13 -87zM237 529q0 164 -59 164t-59 -168v-31t1.5 -34.5t5 -39.5t10 -32t17 -26.5t25.5 -8.5q20 0 33 16.5t18 47
t6.5 54t1.5 58.5zM670 232q0 -72 -34 -131.5t-95 -59.5q-42 0 -72.5 31t-43.5 73t-13 87q0 73 33.5 132t95.5 59q42 0 72.5 -31t43.5 -73t13 -87zM600 238q0 164 -59 164q-36 0 -47.5 -50.5t-11.5 -128.5q0 -161 59 -161q20 0 33 16.5t18 47t6.5 54t1.5 58.5zM1002 232
q0 -72 -34 -131.5t-95 -59.5q-42 0 -72.5 31t-43.5 73t-13 87q0 73 33.5 132t95.5 59q42 0 72.5 -31t43.5 -73t13 -87zM932 238q0 164 -59 164q-36 0 -47.5 -50.5t-11.5 -128.5q0 -161 59 -161q20 0 33 16.5t18 47t6.5 54t1.5 58.5z" />
    <glyph glyph-name="guilsinglleft" unicode="&#x2039;" horiz-adv-x="217" 
d="M194 57l-16 -9l-156 198l156 197l16 -7l-87 -190z" />
    <glyph glyph-name="guilsinglright" unicode="&#x203a;" horiz-adv-x="219" 
d="M196 246l-159 -198l-15 9l88 189l-88 190l15 7z" />
    <glyph glyph-name="fraction" unicode="&#x2044;" horiz-adv-x="353" 
d="M393 686l-365 -694h-48l365 694h48z" />
    <glyph glyph-name="trademark" unicode="&#x2122;" horiz-adv-x="857" 
d="M807 340h-144v13h9q35 0 35 49v328h-1l-129 -390l-128 390h-2v-327q0 -50 36 -50h10v-13h-116v13h8q27 0 35 10q10 12 10 40v281q0 30 -9 39q-9 11 -36 11h-8v12h115l101 -307l101 307h113v-12h-8q-26 0 -36 -10q-9 -10 -9 -40v-282q0 -30 8 -38q11 -11 37 -11h8v-13z
M329 592h-12q0 138 -85 138h-26v-327q0 -30 9 -39q11 -11 36 -11h7v-12h-152v12h8q25 0 36 11q10 12 10 39v327h-27q-83 0 -84 -138h-12v155h292v-155z" />
    <glyph glyph-name="minus" unicode="&#x2212;" horiz-adv-x="608" 
d="M548 305h-488v42h488v-42z" />
    </font>
</defs>
</svg>
